<?xml version="1.0" encoding="utf-8"?>
<!-- Generator: Adobe Illustrator 23.0.1, SVG Export Plug-In . SVG Version: 6.00 Build 0)  -->
<svg version="1.1" id="Layer_1" xmlns="http://www.w3.org/2000/svg" xmlns:xlink="http://www.w3.org/1999/xlink" x="0px" y="0px"
	 viewBox="0 0 638.7 648.6" style="enable-background:new 0 0 638.7 648.6;" xml:space="preserve">
<style type="text/css">
	.st0{fill:none;stroke:#000000;stroke-miterlimit:10;}
</style>
<g>
	<path class="st0" d="M311.2,320.7L311.2,320.7L311.2,320.7c0,0,2.4,0.4,2.4,0.4c0,0-3.8,1-3.8,1c0,0,0.4-3.1,0.5-3.1
		c0.1,0,5.7,2.5,5.7,2.6c0,0-7.6,1.9-7.7,1.9c-0.1,0,1-6.2,1.1-6.2c0.1,0,8.9,4.8,8.9,4.9c0,0.1-11.5,2.8-11.6,2.7
		c-0.1-0.1,1.8-9.3,1.9-9.3c0.2,0,12,7.1,12,7.2c-0.1,0.1-15.4,3.5-15.6,3.3c-0.2-0.1,2.7-12.3,2.9-12.3c0.3-0.1,15,9.4,14.9,9.6
		c-0.1,0.2-19.3,4.1-19.6,3.9c-0.3-0.2,3.7-15.2,4.1-15.3c0.5-0.1,17.9,11.8,17.8,12.1c-0.1,0.3-23.2,4.6-23.6,4.3
		c-0.4-0.3,4.9-18.1,5.4-18.2c0.7-0.1,20.6,14.2,20.4,14.7c-0.2,0.5-27.1,5.1-27.7,4.7c-0.5-0.4,6.2-21,6.9-21.1
		c0.9-0.1,23.2,16.7,23,17.3c-0.2,0.6-31,5.4-31.7,4.9c-0.6-0.5,7.6-23.8,8.5-24c1.1-0.1,25.7,19.3,25.4,20c-0.3,0.8-35,5.7-35.8,5
		c-0.7-0.6,9.2-26.6,10.3-26.8c1.4-0.1,28,21.8,27.6,22.7c-0.4,1-38.9,5.9-39.9,5c-0.9-0.8,10.8-29.4,12.2-29.5
		c1.7-0.2,30.2,24.4,29.8,25.5c-0.5,1.2-42.7,6.1-43.9,5c-1-1,12.6-32.1,14.2-32.3c2-0.2,32.3,27.1,31.7,28.3
		c-0.7,1.4-46.6,6.1-48,4.8c-1.2-1.2,14.4-34.8,16.4-34.9c2.3-0.2,34.3,29.8,33.5,31.2c-0.8,1.6-50.4,6.1-52,4.5
		c-1.4-1.4,16.3-37.5,18.6-37.6c2.7-0.2,36.1,32.5,35.2,34.2c-1,1.9-54.2,6-56,4.2c-1.6-1.6,18.4-40.1,21-40.3
		c3.1-0.2,37.9,35.3,36.8,37.2c-1.2,2.2-57.9,5.9-59.9,3.7c-1.7-1.9,20.4-42.7,23.5-42.9c3.5-0.1,39.5,38.2,38.2,40.3
		c-1.5,2.5-61.7,5.7-63.9,3.2c-1.9-2.1,22.6-45.4,26-45.5c3.9-0.1,41,41.1,39.5,43.5c-1.7,2.8-65.3,5.4-67.7,2.6
		c-2.1-2.5,24.8-48,28.7-48c4.3-0.1,42.4,44.1,40.7,46.8c-2,3.1-68.9,5-71.5,1.8c-2.3-2.8,27-50.5,31.4-50.6
		c4.8,0,43.7,47.1,41.7,50.1c-2.3,3.4-72.5,4.6-75.3,1c-2.5-3.1,29.3-53.1,34.2-53.1c5.3,0,44.9,50.2,42.6,53.5
		c-2.6,3.8-76,4.1-79,0.1c-2.7-3.5,31.6-55.7,37-55.6c5.8,0.1,46,53.4,43.5,57c-2.9,4.2-79.5,3.5-82.7-0.9c-2.9-4,34-58.3,39.9-58.1
		c6.3,0.2,47,56.6,44.2,60.6c-3.3,4.6-82.9,2.9-86.3-2c-3.1-4.4,36.4-60.8,42.8-60.6c6.9,0.3,48,59.9,44.8,64.2
		c-3.7,5-86.3,2.1-89.9-3.3c-3.2-4.9,38.8-63.4,45.8-63c7.4,0.4,48.9,63.3,45.3,68c-4.1,5.4-89.6,1.3-93.4-4.6
		c-3.4-5.4,41.2-65.9,48.9-65.4c8,0.5,49.7,66.7,45.8,71.8c-4.5,5.8-92.9,0.4-96.9-6.1c-3.6-6,43.7-68.5,52-67.8
		c8.6,0.7,50.5,70.3,46.2,75.8c-5,6.2-96.2-0.7-100.4-7.8c-3.8-6.5,46.2-71,55.1-70.1c9.2,0.9,51.3,73.9,46.4,79.8
		c-5.4,6.7-99.5-1.8-103.8-9.5c-4-7.2,48.7-73.5,58.3-72.4c9.9,1.1,51.9,77.6,46.6,84c-5.9,7.1-102.7-3-107.2-11.5
		c-4.1-7.8,51.3-76,61.5-74.7c10.6,1.3,52.6,81.5,46.8,88.2c-6.5,7.6-105.9-4.4-110.5-13.5c-4.3-8.5,53.9-78.4,64.8-76.9
		c11.3,1.6,53.2,85.4,46.8,92.6c-7,8-109.1-5.9-113.9-15.8c-4.5-9.3,56.5-80.8,68.1-79c12,1.9,53.7,89.3,46.8,97
		c-7.6,8.5-112.3-7.5-117.2-18.2c-4.6-10,59.2-83.2,71.5-81c12.7,2.2,54.2,93.4,46.8,101.6c-8.2,8.9-115.4-9.2-120.5-20.7
		c-4.8-10.8,61.8-85.5,74.9-83c13.5,2.6,54.7,97.6,46.6,106.2c-8.8,9.4-118.6-11.1-123.7-23.5c-4.9-11.7,64.6-87.8,78.3-84.9
		c14.3,3,55.2,101.8,46.4,111c-9.4,9.9-121.7-13.1-127-26.4c-5-12.6,67.3-90,81.8-86.7c15.2,3.4,55.6,106.1,46.1,115.8
		c-10.1,10.3-124.8-15.2-130.2-29.4c-5.1-13.5,70.1-92.2,85.4-88.5c16,3.9,55.9,110.5,45.8,120.6c-10.8,10.8-127.9-17.5-133.4-32.7
		c-5.2-14.4,72.9-94.3,89-90.1c16.9,4.5,56.2,114.9,45.3,125.6c-11.5,11.3-130.9-19.8-136.5-36.1c-5.3-15.4,75.8-96.4,92.6-91.6
		c17.8,5,56.4,119.4,44.8,130.6c-12.2,11.7-133.9-22.3-139.6-39.6c-5.4-16.4,78.7-98.4,96.3-93c18.7,5.7,56.6,123.9,44.1,135.6
		c-13,12.2-136.9-24.8-142.6-43.3c-5.4-17.5,81.7-100.2,100-94.3c19.6,6.3,56.6,128.5,43.4,140.6c-13.8,12.6-139.8-27.5-145.6-47.2
		c-5.4-18.6,84.6-102.1,103.8-95.5c20.6,7.1,56.6,133,42.5,145.6c-14.6,13.1-142.7-30.3-148.5-51.1c-5.4-19.7,87.7-103.8,107.6-96.5
		c21.5,7.8,56.4,137.6,41.4,150.7c-15.5,13.5-145.5-33.1-151.2-55.2c-5.4-20.8,90.8-105.4,111.5-97.4
		c22.5,8.6,56.2,142.1,40.2,155.6c-16.4,13.9-148.2-36-153.9-59.4c-5.4-22,93.9-106.9,115.4-98.2c23.4,9.5,55.7,146.6,38.8,160.6
		c-17.3,14.3-150.8-39-156.4-63.6c-5.3-23.2,97.1-108.3,119.4-98.8c24.4,10.4,55.2,151,37.2,165.4c-18.3,14.7-153.3-42-158.8-68
		c-5.2-24.4,100.4-109.6,123.4-99.3C365.9,243.2,395,387.2,376,402c-19.3,15-155.7-45-161-72.4c-5-25.6,103.7-110.7,127.5-99.6
		c26.2,12.3,53.5,159.7,33.4,174.8c-20.3,15.4-158-48.1-163.1-76.8c-4.8-26.8,107-111.8,131.6-99.7c27.1,13.3,52.3,163.8,31.2,179.3
		c-21.4,15.7-160.1-51.2-164.9-81.2c-4.5-28.1,110.4-112.7,135.8-99.7c28,14.3,51,167.9,28.7,183.7c-22.4,16-162-54.3-166.5-85.7
		c-4.2-29.3,113.8-113.5,139.9-99.6c28.8,15.4,49.4,171.8,26,188c-23.5,16.2-163.8-57.4-167.9-90.1C202.8,292.6,324,209,350.8,223.9
		c29.6,16.4,47.6,175.6,23,192c-24.7,16.5-165.3-60.5-169-94.5c-3.4-31.9,120.8-114.7,148.3-98.9c30.4,17.5,45.6,179.2,19.8,195.9
		C347,435.2,206.1,355,203,319.7c-2.9-33.2,124.3-115.2,152.4-98.3C386.5,240,398.8,404,371.6,421c-27,16.9-167.9-66.5-170.4-103.1
		c-2.4-34.5,127.8-115.6,156.5-97.6c31.7,19.8,40.9,185.9,12.5,203.2c-28.1,17.1-168.8-69.5-170.6-107.3
		c-1.8-35.8,131.3-115.8,160.6-96.8c32.3,20.9,38.2,189.1,8.5,206.5c-29.3,17.2-169.5-72.4-170.6-111.5
		c-1.1-37.2,134.9-116,164.7-95.9c32.8,22.1,35.3,192,4.2,209.6c-30.5,17.3-169.9-75.3-170.2-115.5
		c-0.3-38.5,138.4-116.1,168.7-94.9c33.3,23.2,32.1,194.8-0.3,212.6c-31.7,17.4-170.2-78.1-169.6-119.5
		c0.6-39.8,141.9-116,172.6-93.8c33.7,24.4,28.8,197.4-5.1,215.3c-32.9,17.4-170.2-81-168.6-123.4c1.5-41.2,145.5-115.9,176.5-92.5
		c34,25.6,25.2,199.9-10.1,217.9c-34.1,17.4-170-83.8-167.4-127.3c2.5-42.5,149.1-115.6,180.4-91.1c34.2,26.8,21.5,202.2-15.3,220.3
		c-35.3,17.3-169.7-86.6-166-131.1c3.6-43.9,152.7-115.2,184.2-89.5c34.5,28,17.5,204.4-20.8,222.5c-36.5,17.2-169.2-89.4-164.3-135
		c4.8-45.2,156.3-114.7,188-87.8c34.6,29.3,13.5,206.4-26.4,224.5c-37.7,17.1-168.5-92.3-162.4-138.8c6.1-46.5,159.9-114,191.8-85.9
		c34.7,30.5,9.2,208.4-32.2,226.4c-38.9,16.9-167.8-95.2-160.4-142.7c7.4-47.8,163.7-113.1,195.7-83.8
		c34.8,31.9,4.9,210.2-38.2,228.1c-40.2,16.7-167-98.3-158.2-146.6c8.9-49.1,167.5-112,199.5-81.4c34.8,33.2,0.4,212-44.3,229.7
		c-41.5,16.4-166.1-101.4-155.9-150.7c10.4-50.3,171.4-110.8,203.4-78.8c34.7,34.6-4.2,213.7-50.6,231.1
		c-42.8,16-165.3-104.7-153.6-154.8c12-51.5,175.3-109.3,207.4-76c34.7,36.1-8.9,215.4-57,232.3C294,463.4,173.8,339.7,187.1,288.8
		c13.7-52.7,179.4-107.6,211.4-72.9c34.6,37.6-13.6,217-63.6,233.5c-45.6,15-163.5-111.7-148.7-163.5
		c15.5-53.9,183.6-105.7,215.5-69.4c34.5,39.2-18.4,218.6-70.2,234.5c-47.1,14.4-162.8-115.5-146.2-168.1
		c17.3-55,187.9-103.5,219.7-65.7c34.4,40.8-23.3,220.2-76.9,235.4c-48.7,13.8-162.1-119.5-143.8-173
		c19.2-56.1,192.3-101.2,224-61.7c34.2,42.6-28.2,221.9-83.6,236.2c-50.3,13-161.4-123.6-141.3-178c21.1-57.1,196.7-98.6,228.4-57.3
		c34.1,44.4-33.1,223.5-90.4,237c-52,12.2-160.9-128-139-183.2c23.1-58.1,201.3-95.7,232.9-52.7c34,46.3-38,225.2-97.2,237.6
		c-53.8,11.2-160.6-132.7-136.7-188.7c25.2-59,205.9-92.7,237.4-47.7c33.8,48.3-42.8,227-104.1,238.2
		c-55.7,10.2-160.3-137.5-134.4-194.4c27.2-60,210.6-89.5,242.1-42.5c33.7,50.4-47.7,228.8-110.8,238.8
		c-57.6,9.1-160.1-142.6-132.3-200.4c29.3-60.9,215.3-86.2,246.7-36.9c33.6,52.6-52.5,230.7-117.6,239.3
		c-59.6,7.9-160.1-147.8-130.2-206.5c31.5-61.7,220-82.7,251.4-31.2c33.4,54.9-57.2,232.7-124.3,239.8
		c-61.7,6.6-160.1-153.2-128.1-212.9c33.6-62.6,224.7-79.1,256-25.2c33.3,57.3-61.9,234.7-130.9,240.3
		c-63.8,5.2-160.3-158.8-126.1-219.4c35.7-63.4,229.3-75.3,260.6-19.1c33.2,59.7-66.5,236.8-137.4,240.8
		c-65.9,3.7-160.4-164.5-124-226.1c37.9-64.2,233.9-71.6,265.1-12.8c33,62.2-71.1,239-143.8,241.3c-68.1,2.1-160.6-170.3-122-232.9
		c40-65,238.3-67.7,269.4-6.3C477,297.9,368.6,474.3,294,474.8c-70.3,0.5-160.7-176.2-119.9-239.8c42.2-65.7,242.6-63.9,273.6,0.2
		c32.7,67.5-80,243.4-156.4,242.2c-72.4-1.2-160.7-182.1-117.7-246.7c44.3-66.5,246.8-60,277.6,6.8
		c32.4,70.2-84.4,245.7-162.5,242.6c-74.6-3-160.7-188-115.3-253.6c46.5-67.2,250.8-56.2,281.4,13.4c32.1,73-88.7,247.9-168.6,242.9
		c-76.7-4.8-160.5-193.8-112.8-260.5c48.6-67.9,254.6-52.3,284.9,20c31.8,75.8-93.1,250.1-174.6,243.2
		c-78.7-6.7-160.2-199.6-110.1-267.3c50.7-68.6,258.2-48.4,288.2,26.7c31.3,78.7-97.5,252.2-180.6,243.3
		c-80.7-8.6-159.6-205.3-107.1-274c52.9-69.2,261.7-44.6,291.1,33.3c30.8,81.5-101.9,254.2-186.6,243.3
		c-82.6-10.6-158.8-210.9-103.9-280.5c55.1-69.8,265-40.8,293.8,39.9c30.2,84.4-106.4,256.1-192.6,243.2
		C191.7,480.8,118.3,277,175.8,206.5c57.3-70.4,268.1-36.9,296.2,46.4c29.4,87.2-110.9,257.8-198.6,242.9
		c-86.2-14.7-156.5-221.7-96.5-293.1c59.6-70.9,271.1-33,298.4,53c28.6,90-115.5,259.4-204.7,242.4c-87.9-16.8-155-226.9-92.4-299.1
		c61.9-71.4,273.9-29.1,300.2,59.6c27.6,92.9-120.3,260.8-210.8,241.6c-89.6-19-153.3-232.1-88-304.9c64.3-71.7,276.7-25,301.9,66.3
		c26.5,95.7-125.1,262-217,240.6c-91.2-21.2-151.4-237.1-83.4-310.6c66.7-72.1,279.3-20.9,303.4,73
		c25.3,98.5-130.1,263.1-223.3,239.4c-92.7-23.6-149.3-242.1-78.5-316.1c69.2-72.3,281.9-16.7,304.7,79.8
		C511.4,369,352.2,531.7,257.7,505.6c-94.2-26-147.1-247.1-73.4-321.5c71.8-72.5,284.6-12.3,306,86.8
		c22.5,104-140.4,264.6-236.2,236c-95.7-28.5-144.8-252.1-68.2-326.8c74.5-72.6,287.2-7.7,307.2,94c21,106.8-145.7,265.1-242.7,234
		c-97.2-31.2-142.4-257.2-62.8-332c77.2-72.6,289.8-3,308.3,101.4C515.2,387.1,344.7,543,246.4,509.2c-98.8-34-140-262.4-57.4-337.2
		c80-72.5,292.4,1.8,309.3,109c17.7,112.2-156.5,265.7-256,229.1c-100.3-36.9-137.6-267.6-51.9-342.4c82.9-72.4,295,6.8,310.4,116.8
		c16,115-161.9,265.9-262.6,226.4c-101.9-40-135.2-272.9-46.4-347.6C277.7,91,489.5,175,503.2,287.9
		c14.3,117.7-167.3,266-269.1,223.5C130.7,468.2,101.4,233,193.3,158.5c88.7-71.9,300.2,17.1,312.2,132.9
		c12.5,120.5-172.7,266-275.6,220.4c-104.9-46.5-130.3-283.8-35.2-358c91.6-71.5,302.7,22.4,312.9,141.2
		c10.6,123.2-178,265.9-282.1,217.1C119.1,462.2,97.8,222.8,196,148.9c94.6-71.1,305.1,27.7,313.6,149.6
		c8.7,125.9-183.4,265.7-288.4,213.7C113.2,458.9,96,217.5,197.4,144.1C295,73.5,505,177.3,511.5,302.2
		c6.7,128.6-188.8,265.3-294.8,210.1c-109.3-57-122.4-300.3-17.8-373c100.6-70,309.8,38.7,314.4,166.7
		C518,437.2,319,570.8,212.2,512.2c-110.6-60.7-119.5-305.7-11.6-377.7c103.7-69.3,312,44.3,314.5,175.3
		c2.5,133.9-199.8,264.1-307.4,202.2c-111.8-64.4-116.3-311-5.2-382.2c106.9-68.5,314.1,49.9,314.4,184
		C516.9,450.2,311.4,577,203,511.5C90,443.3,90,195.4,204.4,125.1c110.1-67.6,316.2,55.7,314,192.7c-2.2,139-211,262.1-320.1,193.2
		c-113.9-72-109.5-321.2,8.3-390.3c113.5-66.6,318.2,61.6,313.5,201.5c-4.7,141.4-216.8,260.8-326.6,188.2
		C78.8,434.4,87.9,184.2,209.1,116.4C326,51,529.3,184,521.9,326.6c-7.4,143.8-222.7,259.2-333.1,182.9
		c-115.5-79.9-101.6-330.9,23-397.2c120.5-64.1,322.1,73.8,311.9,219.1c-10.2,146-228.8,257.3-339.7,177.2
		c-116.2-83.9-97.3-335.6,30.8-400.2c124.2-62.6,324,80.1,310.9,228c-13.2,148.2-235,255.1-346.4,171.2
		c-116.7-87.9-92.9-340.2,38.8-402.9c128-60.9,326,86.6,309.7,237C511.5,492,286.6,594.4,174.6,506.5
		c-117.2-92.1-88.2-344.8,47-405.4C353.5,42,549.5,194.4,530,347.2c-19.5,152.3-247.6,250.2-360,158.1
		C52.4,409.1,86.5,156.1,225.3,97.8c135.9-57.1,329.9,100.1,307,255.3c-22.8,154.3-254.1,247.3-367,151
		C47.4,403.5,86.8,150.5,229.3,94.5c140.1-55,331.8,107.1,305.4,264.6c-26.2,156.1-260.6,244.3-373.9,143.7
		c-118.2-105-73.5-358,72.6-411.3c144.3-52.7,333.8,114.3,303.7,273.9c-29.7,157.9-267.2,241.1-380.9,135.9
		C37.8,391.9,87.9,139,237.6,88.4C386.2,38.2,573.4,210,539.5,371.8c-33.4,159.6-273.9,237.7-388,127.9
		c-118.4-114-63-366.6,90.4-414.2c152.9-47.6,337.7,129.1,299.9,292.9c-37.2,161.3-280.5,234.1-395,119.6
		C28.4,379.4,89.3,127.2,246.3,82.6c157.3-44.8,339.6,136.7,297.8,302.4c-41,162.8-287.2,230.4-402,111
		C23.7,372.7,90.1,121.2,250.7,79.6C412.5,37.8,592.1,224,546.2,391.5c-45,164.3-293.9,226.6-408.9,102.2
		C19,365.8,90.8,115,255.1,76.7C421.3,38,598.1,228.8,548,398c-49.1,165.8-300.6,222.6-415.7,93.2C14.4,358.6,91.6,108.7,259.5,73.7
		c170.6-35.5,344.4,159.9,289.9,330.6C496.2,571.5,242.3,623,127.2,488.5C9.7,351.2,92.4,102.3,263.9,70.7
		c174.8-32.2,345.5,167.6,286.7,339.8C493,579,237,625.1,122.1,485.6C5.2,343.5,93.3,95.8,268.3,67.6
		c178.9-28.8,346.4,175.2,283.1,348.8C489.4,586.2,231.5,627,117,482.5C0.8,335.8,94.2,89.4,272.6,64.6
		C455.4,39.2,619.4,247.1,551.6,422c-66.3,171.1-325.9,206.6-439.7,57.2C-3.4,327.9,95.3,83,277,61.6
		c186.5-22,346.7,189.7,274.4,365.8c-70.8,172.3-331.7,202.7-444.6,48.5C-7.4,319.8,96.4,76.6,281.3,58.5
		C471.2,40,627.6,255.1,550.6,432.4c-75.3,173.5-337.3,198.8-449,39.9c-112.9-160.6-4-402.1,184.1-416.8
		c193.1-15.1,345.5,203.3,263.8,381.7c-79.9,174.6-342.7,194.9-452.9,31.5C-14.8,303.5,99,63.9,290.1,52.5
		c196-11.7,344.3,209.8,258,389.3c-84.5,175.6-347.9,191-456.4,23.1C-18.1,295.2,100.4,57.5,294.5,49.6
		c198.9-8.1,343,216.3,251.9,396.9C457.4,623,193.5,633.5,86.9,461.2C-21.2,286.7,102,51.1,299,46.7
		C500.7,42.2,640.5,269.5,544.7,451c-93.7,177.5-357.9,183-462.6,6.3C-24,278.2,103.7,44.6,303.5,43.9
		C508,43.2,643.6,273.4,542.9,455.8C444.4,634,180,634.6,77.4,453.4C-26.8,269.4,105.5,38,308.1,41.2
		c207.4,3.3,338.7,236.3,233,419.5C438,639.6,173.3,635.1,72.7,449.2c-102.1-188.7,34.7-418,240.1-410.6
		C523.3,46.2,650.4,282.1,539.7,466c-108,179.4-373,169.7-471.6-21c-100-193.5,41.4-420.5,249.6-408.7
		c213.8,12.1,336.6,251,220.7,435.4C425.4,651.4,160,636.4,63.5,440.6C-34.3,242.2,111.6,17.5,322.6,34
		c217.3,17,335.9,258.9,214.7,443.7C419.3,657.7,153.5,637.1,59,436C-36.6,232.8,113.9,10.5,327.7,32
		c221,22.2,335.3,267.1,208.7,452c-123.2,180.1-389.4,154-482-52.6C-38.8,223.2,116.4,3.5,333,30.2
		c224.8,27.7,334.7,275.6,202.8,460.5c-128.5,180-395.1,148.3-485.7-64c-91-213,68.9-430.1,288.4-398
		C567.2,62,672.7,312.8,535.2,497.4C401.3,677.3,134.3,639.8,45.7,421.7C-42.8,203.8,121.8-10.4,344.2,27.2
		c232.6,39.3,333.5,293,190.4,477.2C395.1,683.9,127.9,640.7,41.5,416.7C-44.4,194.1,124.9-17.1,350,26.1
		c236.3,45.4,332.6,301.7,183.8,485.2C388.7,690.4,121.5,641.4,37.4,411.7C-45.7,184.4,128.3-23.7,356.1,25.3
		C596,76.9,687.4,335.6,532.9,518.2C381.9,696.6,114.9,642,33.5,406.6C-46.6,174.7,132-30,362.4,24.8
		c243.1,57.7,329.6,318.6,169.3,500.1c-157,177.7-423.6,117.4-502-123.5C-47.2,165.1,136-36,368.9,24.5
		C615,88.4,696.4,351.3,530.2,531.5C367.2,708.2,101.1,642.4,26.1,396.2c-73.4-240.6,114.2-438,349.6-371.7
		c248.7,70.1,324.8,334.6,152.7,513.2C359,713.4,93.9,642.1,22.5,390.9C-47.1,146,144.8-47.4,382.4,24.7
		c250.9,76.2,321.7,342.2,143.5,519C350.3,718.1,86.4,641.3,19,385.4c-65.6-249,130.6-438.3,370.4-360.3
		c252.8,82.2,318.1,349.5,133.9,524.3C341,722.3,78.6,640.2,15.5,379.8c-61.3-253,139-438,380.8-354.1
		c254.4,88.2,314,356.6,123.7,529.1C331.1,726,70.5,638.6,12,374C-44.7,117.1,159.5-63.6,403.3,26.3
		C659,120.5,713,389.8,516.4,559.9C320.8,729.2,62.1,636.6,8.5,367.9c-52-260.7,156.1-436.8,401.7-341"/>
	<path class="st0" d="M314.2,323.7L314.2,323.7L314.2,323.7c0,0,2.4,0.4,2.4,0.4c0,0-3.8,1-3.8,1c0,0,0.4-3.1,0.5-3.1
		c0.1,0,5.7,2.5,5.7,2.6c0,0-7.6,1.9-7.7,1.9c-0.1,0,1-6.2,1.1-6.2c0.1,0,8.9,4.8,8.9,4.9c0,0.1-11.5,2.8-11.6,2.7
		c-0.1-0.1,1.8-9.3,1.9-9.3c0.2,0,12,7.1,12,7.2c-0.1,0.1-15.4,3.5-15.6,3.3c-0.2-0.1,2.7-12.3,2.9-12.3c0.3-0.1,15,9.4,14.9,9.6
		c-0.1,0.2-19.3,4.1-19.6,3.9c-0.3-0.2,3.7-15.2,4.1-15.3c0.5-0.1,17.9,11.8,17.8,12.1c-0.1,0.3-23.2,4.6-23.6,4.3
		c-0.4-0.3,4.9-18.1,5.4-18.2c0.7-0.1,20.6,14.2,20.4,14.7c-0.2,0.5-27.1,5.1-27.7,4.7c-0.5-0.4,6.2-21,6.9-21.1
		c0.9-0.1,23.2,16.7,23,17.3c-0.2,0.6-31,5.4-31.7,4.9c-0.6-0.5,7.6-23.8,8.5-24c1.1-0.1,25.7,19.3,25.4,20c-0.3,0.8-35,5.7-35.8,5
		c-0.7-0.6,9.2-26.6,10.3-26.8c1.4-0.1,28,21.8,27.6,22.7c-0.4,1-38.9,5.9-39.9,5c-0.9-0.8,10.8-29.4,12.2-29.5
		c1.7-0.2,30.2,24.4,29.8,25.5c-0.5,1.2-42.7,6.1-43.9,5c-1-1,12.6-32.1,14.2-32.3c2-0.2,32.3,27.1,31.7,28.3
		c-0.7,1.4-46.6,6.1-48,4.8c-1.2-1.2,14.4-34.8,16.4-34.9c2.3-0.2,34.3,29.8,33.5,31.2c-0.8,1.6-50.4,6.1-52,4.5
		c-1.4-1.4,16.3-37.5,18.6-37.6c2.7-0.2,36.1,32.5,35.2,34.2c-1,1.9-54.2,6-56,4.2c-1.6-1.6,18.4-40.1,21-40.3
		c3.1-0.2,37.9,35.3,36.8,37.2c-1.2,2.2-57.9,5.9-59.9,3.7c-1.7-1.9,20.4-42.7,23.5-42.9c3.5-0.1,39.5,38.2,38.2,40.3
		c-1.5,2.5-61.7,5.7-63.9,3.2c-1.9-2.1,22.6-45.4,26-45.5c3.9-0.1,41,41.1,39.5,43.5c-1.7,2.8-65.3,5.4-67.7,2.6
		c-2.1-2.5,24.8-48,28.7-48c4.3-0.1,42.4,44.1,40.7,46.8c-2,3.1-68.9,5-71.5,1.8c-2.3-2.8,27-50.5,31.4-50.6
		c4.8,0,43.7,47.1,41.7,50.1c-2.3,3.4-72.5,4.6-75.3,1c-2.5-3.1,29.3-53.1,34.2-53.1c5.3,0,44.9,50.2,42.6,53.5
		c-2.6,3.8-76,4.1-79,0.1c-2.7-3.5,31.6-55.7,37-55.6c5.8,0.1,46,53.4,43.5,57c-2.9,4.2-79.5,3.5-82.7-0.9c-2.9-4,34-58.3,39.9-58.1
		c6.3,0.2,47,56.6,44.2,60.6c-3.3,4.6-82.9,2.9-86.3-2c-3.1-4.4,36.4-60.8,42.8-60.6c6.9,0.3,48,59.9,44.8,64.2
		c-3.7,5-86.3,2.1-89.9-3.3c-3.2-4.9,38.8-63.4,45.8-63c7.4,0.4,48.9,63.3,45.3,68c-4.1,5.4-89.6,1.3-93.4-4.6
		c-3.4-5.4,41.2-65.9,48.9-65.4c8,0.5,49.7,66.7,45.8,71.8c-4.5,5.8-92.9,0.4-96.9-6.1c-3.6-6,43.7-68.5,52-67.8
		c8.6,0.7,50.5,70.3,46.2,75.8c-5,6.2-96.2-0.7-100.4-7.8c-3.8-6.5,46.2-71,55.1-70.1c9.2,0.9,51.3,73.9,46.4,79.8
		c-5.4,6.7-99.5-1.8-103.8-9.5c-4-7.2,48.7-73.5,58.3-72.4c9.9,1.1,51.9,77.6,46.6,84c-5.9,7.1-102.7-3-107.2-11.5
		c-4.1-7.8,51.3-76,61.5-74.7c10.6,1.3,52.6,81.5,46.8,88.2c-6.5,7.6-105.9-4.4-110.5-13.5c-4.3-8.5,53.9-78.4,64.8-76.9
		c11.3,1.6,53.2,85.4,46.8,92.6c-7,8-109.1-5.9-113.9-15.8c-4.5-9.3,56.5-80.8,68.1-79c12,1.9,53.7,89.3,46.8,97
		c-7.6,8.5-112.3-7.5-117.2-18.2c-4.6-10,59.2-83.2,71.5-81c12.7,2.2,54.2,93.4,46.8,101.6c-8.2,8.9-115.4-9.2-120.5-20.7
		c-4.8-10.8,61.8-85.5,74.9-83c13.5,2.6,54.7,97.6,46.6,106.2c-8.8,9.4-118.6-11.1-123.7-23.5c-4.9-11.7,64.6-87.8,78.3-84.9
		c14.3,3,55.2,101.8,46.4,111c-9.4,9.9-121.7-13.1-127-26.4c-5-12.6,67.3-90,81.8-86.7c15.2,3.4,55.6,106.1,46.1,115.8
		c-10.1,10.3-124.8-15.2-130.2-29.4c-5.1-13.5,70.1-92.2,85.4-88.5c16,3.9,55.9,110.5,45.8,120.6c-10.8,10.8-127.9-17.5-133.4-32.7
		c-5.2-14.4,72.9-94.3,89-90.1c16.9,4.5,56.2,114.9,45.3,125.6c-11.5,11.3-130.9-19.8-136.5-36.1c-5.3-15.4,75.8-96.4,92.6-91.6
		c17.8,5,56.4,119.4,44.8,130.6c-12.2,11.7-133.9-22.3-139.6-39.6c-5.4-16.4,78.7-98.4,96.3-93c18.7,5.7,56.6,123.9,44.1,135.6
		c-13,12.2-136.9-24.8-142.6-43.3c-5.4-17.5,81.7-100.2,100-94.3c19.6,6.3,56.6,128.5,43.4,140.6c-13.8,12.6-139.8-27.5-145.6-47.2
		c-5.4-18.6,84.6-102.1,103.8-95.5c20.6,7.1,56.6,133,42.5,145.6c-14.6,13.1-142.7-30.3-148.5-51.1c-5.4-19.7,87.7-103.8,107.6-96.5
		c21.5,7.8,56.4,137.6,41.4,150.7c-15.5,13.5-145.5-33.1-151.2-55.2c-5.4-20.8,90.8-105.4,111.5-97.4
		c22.5,8.6,56.2,142.1,40.2,155.6c-16.4,13.9-148.2-36-153.9-59.4c-5.4-22,93.9-106.9,115.4-98.2c23.4,9.5,55.7,146.6,38.8,160.6
		c-17.3,14.3-150.8-39-156.4-63.6c-5.3-23.2,97.1-108.3,119.4-98.8c24.4,10.4,55.2,151,37.2,165.4c-18.3,14.7-153.3-42-158.8-68
		c-5.2-24.4,100.4-109.6,123.4-99.3C368.9,246.2,398,390.2,379,405c-19.3,15-155.7-45-161-72.4c-5-25.6,103.7-110.7,127.5-99.6
		c26.2,12.3,53.5,159.7,33.4,174.8c-20.3,15.4-158-48.1-163.1-76.8c-4.8-26.8,107-111.8,131.6-99.7c27.1,13.3,52.3,163.8,31.2,179.3
		c-21.4,15.7-160.1-51.2-164.9-81.2c-4.5-28.1,110.4-112.7,135.8-99.7c28,14.3,51,167.9,28.7,183.7c-22.4,16-162-54.3-166.5-85.7
		c-4.2-29.3,113.8-113.5,139.9-99.6c28.8,15.4,49.4,171.8,26,188c-23.5,16.2-163.8-57.4-167.9-90.1C205.8,295.6,327,212,353.8,226.9
		c29.6,16.4,47.6,175.6,23,192c-24.7,16.5-165.3-60.5-169-94.5c-3.4-31.9,120.8-114.7,148.3-98.9c30.4,17.5,45.6,179.2,19.8,195.9
		C350,438.2,209.1,358,206,322.7c-2.9-33.2,124.3-115.2,152.4-98.3C389.5,243,401.8,407,374.6,424c-27,16.9-167.9-66.5-170.4-103.1
		c-2.4-34.5,127.8-115.6,156.5-97.6c31.7,19.8,40.9,185.9,12.5,203.2c-28.1,17.1-168.8-69.5-170.6-107.3
		c-1.8-35.8,131.3-115.8,160.6-96.8c32.3,20.9,38.2,189.1,8.5,206.5c-29.3,17.2-169.5-72.4-170.6-111.5
		c-1.1-37.2,134.9-116,164.7-95.9c32.8,22.1,35.3,192,4.2,209.6c-30.5,17.3-169.9-75.3-170.2-115.5
		c-0.3-38.5,138.4-116.1,168.7-94.9c33.3,23.2,32.1,194.8-0.3,212.6c-31.7,17.4-170.2-78.1-169.6-119.5
		c0.6-39.8,141.9-116,172.6-93.8c33.7,24.4,28.8,197.4-5.1,215.3c-32.9,17.4-170.2-81-168.6-123.4c1.5-41.2,145.5-115.9,176.5-92.5
		c34,25.6,25.2,199.9-10.1,217.9c-34.1,17.4-170-83.8-167.4-127.3c2.5-42.5,149.1-115.6,180.4-91.1c34.2,26.8,21.5,202.2-15.3,220.3
		c-35.3,17.3-169.7-86.6-166-131.1c3.6-43.9,152.7-115.2,184.2-89.5c34.5,28,17.5,204.4-20.8,222.5c-36.5,17.2-169.2-89.4-164.3-135
		c4.8-45.2,156.3-114.7,188-87.8c34.6,29.3,13.5,206.4-26.4,224.5c-37.7,17.1-168.5-92.3-162.4-138.8c6.1-46.5,159.9-114,191.8-85.9
		c34.7,30.5,9.2,208.4-32.2,226.4c-38.9,16.9-167.8-95.2-160.4-142.7c7.4-47.8,163.7-113.1,195.7-83.8
		c34.8,31.9,4.9,210.2-38.2,228.1c-40.2,16.7-167-98.3-158.2-146.6c8.9-49.1,167.5-112,199.5-81.4c34.8,33.2,0.4,212-44.3,229.7
		c-41.5,16.4-166.1-101.4-155.9-150.7c10.4-50.3,171.4-110.8,203.4-78.8c34.7,34.6-4.2,213.7-50.6,231.1
		c-42.8,16-165.3-104.7-153.6-154.8c12-51.5,175.3-109.3,207.4-76c34.7,36.1-8.9,215.4-57,232.3C297,466.4,176.8,342.7,190.1,291.8
		c13.7-52.7,179.4-107.6,211.4-72.9c34.6,37.6-13.6,217-63.6,233.5c-45.6,15-163.5-111.7-148.7-163.5
		c15.5-53.9,183.6-105.7,215.5-69.4c34.5,39.2-18.4,218.6-70.2,234.5c-47.1,14.4-162.8-115.5-146.2-168.1
		c17.3-55,187.9-103.5,219.7-65.7c34.4,40.8-23.3,220.2-76.9,235.4c-48.7,13.8-162.1-119.5-143.8-173
		c19.2-56.1,192.3-101.2,224-61.7c34.2,42.6-28.2,221.9-83.6,236.2c-50.3,13-161.4-123.6-141.3-178c21.1-57.1,196.7-98.6,228.4-57.3
		c34.1,44.4-33.1,223.5-90.4,237c-52,12.2-160.9-128-139-183.2c23.1-58.1,201.3-95.7,232.9-52.7c34,46.3-38,225.2-97.2,237.6
		c-53.8,11.2-160.6-132.7-136.7-188.7c25.2-59,205.9-92.7,237.4-47.7c33.8,48.3-42.8,227-104.1,238.2
		c-55.7,10.2-160.3-137.5-134.4-194.4c27.2-60,210.6-89.5,242.1-42.5c33.7,50.4-47.7,228.8-110.8,238.8
		c-57.6,9.1-160.1-142.6-132.3-200.4c29.3-60.9,215.3-86.2,246.7-36.9c33.6,52.6-52.5,230.7-117.6,239.3
		c-59.6,7.9-160.1-147.8-130.2-206.5c31.5-61.7,220-82.7,251.4-31.2c33.4,54.9-57.2,232.7-124.3,239.8
		c-61.7,6.6-160.1-153.2-128.1-212.9c33.6-62.6,224.7-79.1,256-25.2c33.3,57.3-61.9,234.7-130.9,240.3
		c-63.8,5.2-160.3-158.8-126.1-219.4c35.7-63.4,229.3-75.3,260.6-19.1c33.2,59.7-66.5,236.8-137.4,240.8
		c-65.9,3.7-160.4-164.5-124-226.1c37.9-64.2,233.9-71.6,265.1-12.8c33,62.2-71.1,239-143.8,241.3c-68.1,2.1-160.6-170.3-122-232.9
		c40-65,238.3-67.7,269.4-6.3C480,300.9,371.6,477.3,297,477.8c-70.3,0.5-160.7-176.2-119.9-239.8c42.2-65.7,242.6-63.9,273.6,0.2
		c32.7,67.5-80,243.4-156.4,242.2c-72.4-1.2-160.7-182.1-117.7-246.7c44.3-66.5,246.8-60,277.6,6.8
		c32.4,70.2-84.4,245.7-162.5,242.6c-74.6-3-160.7-188-115.3-253.6c46.5-67.2,250.8-56.2,281.4,13.4c32.1,73-88.7,247.9-168.6,242.9
		c-76.7-4.8-160.5-193.8-112.8-260.5c48.6-67.9,254.6-52.3,284.9,20c31.8,75.8-93.1,250.1-174.6,243.2
		c-78.7-6.7-160.2-199.6-110.1-267.3c50.7-68.6,258.2-48.4,288.2,26.7c31.3,78.7-97.5,252.2-180.6,243.3
		c-80.7-8.6-159.6-205.3-107.1-274c52.9-69.2,261.7-44.6,291.1,33.3c30.8,81.5-101.9,254.2-186.6,243.3
		c-82.6-10.6-158.8-210.9-103.9-280.5c55.1-69.8,265-40.8,293.8,39.9c30.2,84.4-106.4,256.1-192.6,243.2
		C194.7,483.8,121.3,280,178.8,209.5c57.3-70.4,268.1-36.9,296.2,46.4c29.4,87.2-110.9,257.8-198.6,242.9
		c-86.2-14.7-156.5-221.7-96.5-293.1c59.6-70.9,271.1-33,298.4,53c28.6,90-115.5,259.4-204.7,242.4c-87.9-16.8-155-226.9-92.4-299.1
		c61.9-71.4,273.9-29.1,300.2,59.6c27.6,92.9-120.3,260.8-210.8,241.6c-89.6-19-153.3-232.1-88-304.9c64.3-71.7,276.7-25,301.9,66.3
		c26.5,95.7-125.1,262-217,240.6c-91.2-21.2-151.4-237.1-83.4-310.6c66.7-72.1,279.3-20.9,303.4,73
		c25.3,98.5-130.1,263.1-223.3,239.4c-92.7-23.6-149.3-242.1-78.5-316.1c69.2-72.3,281.9-16.7,304.7,79.8
		C514.4,372,355.2,534.7,260.7,508.6c-94.2-26-147.1-247.1-73.4-321.5c71.8-72.5,284.6-12.3,306,86.8
		c22.5,104-140.4,264.6-236.2,236c-95.7-28.5-144.8-252.1-68.2-326.8c74.5-72.6,287.2-7.7,307.2,94c21,106.8-145.7,265.1-242.7,234
		c-97.2-31.2-142.4-257.2-62.8-332c77.2-72.6,289.8-3,308.3,101.4C518.2,390.1,347.7,546,249.4,512.2c-98.8-34-140-262.4-57.4-337.2
		c80-72.5,292.4,1.8,309.3,109c17.7,112.2-156.5,265.7-256,229.1c-100.3-36.9-137.6-267.6-51.9-342.4c82.9-72.4,295,6.8,310.4,116.8
		c16,115-161.9,265.9-262.6,226.4c-101.9-40-135.2-272.9-46.4-347.6C280.7,94,492.5,178,506.2,290.9
		c14.3,117.7-167.3,266-269.1,223.5C133.7,471.2,104.4,236,196.3,161.5c88.7-71.9,300.2,17.1,312.2,132.9
		c12.5,120.5-172.7,266-275.6,220.4c-104.9-46.5-130.3-283.8-35.2-358c91.6-71.5,302.7,22.4,312.9,141.2
		c10.6,123.2-178,265.9-282.1,217.1C122.1,465.2,100.8,225.8,199,151.9c94.6-71.1,305.1,27.7,313.6,149.6
		c8.7,125.9-183.4,265.7-288.4,213.7C116.2,461.9,99,220.5,200.4,147.1C298,76.5,508,180.3,514.5,305.2
		c6.7,128.6-188.8,265.3-294.8,210.1c-109.3-57-122.4-300.3-17.8-373c100.6-70,309.8,38.7,314.4,166.7
		C521,440.2,322,573.8,215.2,515.2c-110.6-60.7-119.5-305.7-11.6-377.7c103.7-69.3,312,44.3,314.5,175.3
		c2.5,133.9-199.8,264.1-307.4,202.2c-111.8-64.4-116.3-311-5.2-382.2c106.9-68.5,314.1,49.9,314.4,184
		C519.9,453.2,314.4,580,206,514.5C93,446.3,93,198.4,207.4,128.1c110.1-67.6,316.2,55.7,314,192.7c-2.2,139-211,262.1-320.1,193.2
		c-113.9-72-109.5-321.2,8.3-390.3c113.5-66.6,318.2,61.6,313.5,201.5c-4.7,141.4-216.8,260.8-326.6,188.2
		C81.8,437.4,90.9,187.2,212.1,119.4C329,54,532.3,187,524.9,329.6c-7.4,143.8-222.7,259.2-333.1,182.9
		c-115.5-79.9-101.6-330.9,23-397.2c120.5-64.1,322.1,73.8,311.9,219.1c-10.2,146-228.8,257.3-339.7,177.2
		c-116.2-83.9-97.3-335.6,30.8-400.2c124.2-62.6,324,80.1,310.9,228c-13.2,148.2-235,255.1-346.4,171.2
		c-116.7-87.9-92.9-340.2,38.8-402.9c128-60.9,326,86.6,309.7,237C514.5,495,289.6,597.4,177.6,509.5
		c-117.2-92.1-88.2-344.8,47-405.4C356.5,45,552.5,197.4,533,350.2c-19.5,152.3-247.6,250.2-360,158.1
		c-117.6-96.3-83.4-349.2,55.4-407.6c135.9-57.1,329.9,100.1,307,255.3c-22.8,154.3-254.1,247.3-367,151
		C50.4,406.5,89.8,153.5,232.3,97.5c140.1-55,331.8,107.1,305.4,264.6c-26.2,156.1-260.6,244.3-373.9,143.7
		c-118.2-105-73.5-358,72.6-411.3c144.3-52.7,333.8,114.3,303.7,273.9c-29.7,157.9-267.2,241.1-380.9,135.9
		C40.8,394.9,90.9,142,240.6,91.4C389.2,41.2,576.4,213,542.5,374.8c-33.4,159.6-273.9,237.7-388,127.9
		c-118.4-114-63-366.6,90.4-414.2c152.9-47.6,337.7,129.1,299.9,292.9c-37.2,161.3-280.5,234.1-395,119.6
		C31.4,382.4,92.3,130.2,249.3,85.6c157.3-44.8,339.6,136.7,297.8,302.4c-41,162.8-287.2,230.4-402,111
		C26.7,375.7,93.1,124.2,253.7,82.6C415.5,40.8,595.1,227,549.2,394.5c-45,164.3-293.9,226.6-408.9,102.2
		C22,368.8,93.8,118,258.1,79.7C424.3,41,601.1,231.8,551,401c-49.1,165.8-300.6,222.6-415.7,93.2C17.4,361.6,94.6,111.7,262.5,76.7
		c170.6-35.5,344.4,159.9,289.9,330.6C499.2,574.5,245.3,626,130.2,491.5C12.7,354.2,95.4,105.3,266.9,73.7
		c174.8-32.2,345.5,167.6,286.7,339.8C496,582,240,628.1,125.1,488.6C8.2,346.5,96.3,98.8,271.3,70.6
		c178.9-28.8,346.4,175.2,283.1,348.8C492.4,589.2,234.5,630,120,485.5C3.8,338.8,97.2,92.4,275.6,67.6
		C458.4,42.2,622.4,250.1,554.6,425c-66.3,171.1-325.9,206.6-439.7,57.2C-0.4,330.9,98.3,86,280,64.6
		c186.5-22,346.7,189.7,274.4,365.8c-70.8,172.3-331.7,202.7-444.6,48.5C-4.4,322.8,99.4,79.6,284.3,61.5
		C474.2,43,630.6,258.1,553.6,435.4c-75.3,173.5-337.3,198.8-449,39.9c-112.9-160.6-4-402.1,184.1-416.8
		c193.1-15.1,345.5,203.3,263.8,381.7c-79.9,174.6-342.7,194.9-452.9,31.5C-11.8,306.5,102,66.9,293.1,55.5
		c196-11.7,344.3,209.8,258,389.3c-84.5,175.6-347.9,191-456.4,23.1C-15.1,298.2,103.4,60.5,297.5,52.6
		c198.9-8.1,343,216.3,251.9,396.9C460.4,626,196.5,636.5,89.9,464.2C-18.2,289.7,105,54.1,302,49.7
		C503.7,45.2,643.5,272.5,547.7,454c-93.7,177.5-357.9,183-462.6,6.3C-21,281.2,106.7,47.6,306.5,46.9
		C511,46.2,646.6,276.4,545.9,458.8C447.4,637,183,637.6,80.4,456.4C-23.8,272.4,108.5,41,311.1,44.2
		c207.4,3.3,338.7,236.3,233,419.5C441,642.6,176.3,638.1,75.7,452.2c-102.1-188.7,34.7-418,240.1-410.6
		C526.3,49.2,653.4,285.1,542.7,469c-108,179.4-373,169.7-471.6-21c-100-193.5,41.4-420.5,249.6-408.7
		c213.8,12.1,336.6,251,220.7,435.4C428.4,654.4,163,639.4,66.5,443.6C-31.3,245.2,114.6,20.5,325.6,37
		c217.3,17,335.9,258.9,214.7,443.7C422.3,660.7,156.5,640.1,62,439C-33.6,235.8,116.9,13.5,330.7,35
		c221,22.2,335.3,267.1,208.7,452c-123.2,180.1-389.4,154-482-52.6C-35.8,226.2,119.4,6.5,336,33.2
		c224.8,27.7,334.7,275.6,202.8,460.5c-128.5,180-395.1,148.3-485.7-64c-91-213,68.9-430.1,288.4-398
		C570.2,65,675.7,315.8,538.2,500.4C404.3,680.3,137.3,642.8,48.7,424.7C-39.8,206.8,124.8-7.4,347.2,30.2
		c232.6,39.3,333.5,293,190.4,477.2C398.1,686.9,130.9,643.7,44.5,419.7C-41.4,197.1,127.9-14.1,353,29.1
		c236.3,45.4,332.6,301.7,183.8,485.2C391.7,693.4,124.5,644.4,40.4,414.7C-42.7,187.4,131.3-20.7,359.1,28.3
		C599,79.9,690.4,338.6,535.9,521.2C384.9,699.6,117.9,645,36.5,409.6C-43.6,177.7,135-27,365.4,27.8
		c243.1,57.7,329.6,318.6,169.3,500.1c-157,177.7-423.6,117.4-502-123.5C-44.2,168.1,139-33,371.9,27.5
		C618,91.4,699.4,354.3,533.2,534.5C370.2,711.2,104.1,645.4,29.1,399.2c-73.4-240.6,114.2-438,349.6-371.7
		c248.7,70.1,324.8,334.6,152.7,513.2C362,716.4,96.9,645.1,25.5,393.9C-44.1,149,147.8-44.4,385.4,27.7
		c250.9,76.2,321.7,342.2,143.5,519C353.3,721.1,89.4,644.3,22,388.4c-65.6-249,130.6-438.3,370.4-360.3
		c252.8,82.2,318.1,349.5,133.9,524.3C344,725.3,81.6,643.2,18.5,382.8c-61.3-253,139-438,380.8-354.1
		c254.4,88.2,314,356.6,123.7,529.1C334.1,729,73.5,641.6,15,377C-41.7,120.1,162.5-60.6,406.3,29.3
		C662,123.5,716,392.8,519.4,562.9C323.8,732.2,65.1,639.6,11.5,370.9c-52-260.7,156.1-436.8,401.7-341"/>
</g>
</svg>
