<?xml version="1.0" encoding="utf-8"?>
<!-- Generator: Adobe Illustrator 23.0.1, SVG Export Plug-In . SVG Version: 6.00 Build 0)  -->
<svg version="1.1" id="Layer_1" xmlns="http://www.w3.org/2000/svg" xmlns:xlink="http://www.w3.org/1999/xlink" x="0px" y="0px"
	 viewBox="0 0 346.7 45.6" style="enable-background:new 0 0 346.7 45.6;" xml:space="preserve">
<title>mugenosu</title>
<path d="M48.3,43.1C42.4,46,42.6,36.7,43,33c0.2-1.6,2.6-8.3,2.1-9.4c-0.6-1.3,0-0.8-1.4-0.6c-2.5,0.4-6.1,4.2-8.5,5.4
	c-2.9,1.5-6.2,2.9-9.5,2.8c-4.7-0.1-7.5-3.1-9.4-7c-1.7,2.6-1.8,5.7-3,8.4c-1.1,2.4-3.1,4.3-4,6.8c-0.9,2.2-0.9,6.1-4.2,6.3
	c-3.7,0.2-4.7-5.8-4.9-8.6C-0.5,30.4,11.9-0.9,19.1,0.9c0.7,0.2,3.4,2.6,3.9,3c2.9,2.5,3.9,4.2,4,8.3c0,1.9-0.4,4.3,1.3,5.3
	c2.5,1.5,6.6-2.1,8.5-3.6c2.5-1.9,5.2-4.2,7.3-6.5c2.7-3,3.1-7.2,7.9-4.3c3.2,1.9,4.2,5.9,5.8,9c-0.4,0-0.9-0.1-1.3-0.1
	c0.9,4.5-1,11-1.7,15.6C54.1,32.8,53.3,40.6,48.3,43.1z"/>
<path d="M99.7,4.4c0.2,2.8,1.9,5.2,2.2,7.9c0.2,2.6-0.7,6.4-1.7,8.9c-0.8,2-4,10.4-6.5,9c-0.6,5.3-9.3,10.5-14,12.6
	c-3.1,1.4-7.4,2.5-10.7,1.1c-3.2-1.3-4.2-5-5.8-7.8c0.4-0.1,0.8-0.2,1.2-0.4c-5.3-4.9-2.2-15.6-1.2-21.9c0.7-4.2,1.8-9.9,6-5.8
	c1.8,1.7,2.6,3.2,3.4,5.6c1.2,3.6,0.1,5-0.4,8.6c-0.3,2.3-0.9,8,1.5,8.9c3.6,1.3,10.4-4.8,12.5-7.1c4.8-5.3,5.3-10.8,6.8-17.4
	c0,0,0.9-2.8,1.1-3C96,0.3,97.1,1.5,99.7,4.4z"/>
<path d="M150.2,31.7c-4.9,9.2-21.2,10.7-30.4,12.2c-9.9,1.6-18.5-0.5-19.1-12.6c-0.4-7.9,8.4-15.9,14.5-20.5
	c3.3-2.5,11.9-9.7,15.8-9.5c1.9,0.1,8.4,7,6.1,7c0.1,0.7,1.3,0.9,0.6,2c-1.1,1.8-5.8,3.1-7.7,4c-6.2,3.3-11.6,7.4-16.3,12.7
	c-4.8,5.4-5.7,7.8,2.4,6.9c5.2-0.5,11.4-2.2,17.1-3.7c-1.4-0.5-2.5-0.5-1.2-1.8c-2.3-1.3-2.1-3.4-2.3-5.3c0-0.1-0.7,0.5-0.9,0.4
	c0.2-1.9,1.6-2.8,3.1-3.7c2.9-1.6,2.4-1.5,5.5,0.3C141.6,22.7,150.9,26.1,150.2,31.7z"/>
<path d="M186.6,4.8c1.2,6.9-10.2,7.3-14.5,8.5c-1.7,0.5-8,1.2-8.3,3c-0.5,3.3,9.4,1.4,11.6,1.3c0.5,2.3,3.8,2.8,4.3,4.4
	c0.9,2.9-4.7,5.4-7.2,6c-1.8,0.5-3.8,0.3-5.6,0.3c-1.1,0-4.4-0.8-5.4-0.4c-1.6,0.7-3.1,5.2-3.7,6.8c5.2,0.9,11.1-0.2,16.1-1.3
	c3.8-0.8,3.9-1.2,6.6,1.1c1.1,1,1.9,1,2.3,2.7c1.7,8.4-27.8,10.4-32.3,5c-3.9-4.6-2-10.6,0.1-15c1.1-2.2,3.7-6.1,3.8-8.5
	c0.1-2.3-2.8-5.2-2.5-8.2c0.8-6.7,30.6-8.7,30.5-9.1C183.3,3,184.9,4.1,186.6,4.8z"/>
<path d="M199.3,31.6c-1.3,0.3-3.5,5.1-4.1,6.5c-0.5,1.2-2.9,6.5-2.9,6.4c-2.5-0.7-3,0.7-5.2-2.2c-1.1-1.4-2.6-4.4-2.9-6.2
	c-1.1-5.9,5.1-14.2,7.7-19.5c1.7-3.5,3.4-7,5-10.6c2.1-4.5,2.3-5.3,6.8-2.3c2.1,1.4,4.6,3.7,4.8,6.5c0,0.6-0.9,1.1-0.1,2.2
	c-0.3,0.1-0.6,0.1-0.8,0.1c0.8,1.9-1.2,3.7-1.4,4.7c-0.7,3.6-0.3,9.5,0.6,13.1c7.5-4.3,7-13.6,8.8-20.8c0.4-1.7,1.2-4.1,2.1-5.6
	c1.3-2.2,0.1-3,2.8-2.2c2.2,0.6,6.1,4.1,6.6,6.4c0.6,2.8-1.4,4.7-2.2,7.1c-0.9,2.5-1.3,5.9-1.6,8.5c-0.3,2.5-2.5,15.5-6.3,14.9
	c0.9,2.6-5.4,5.2-7.4,4.9C204.8,42.7,200.8,35.7,199.3,31.6z"/>
<path d="M266.5,23.3c-0.3,2.9,2,5.3,1.7,8.3c-0.3,3.5-2.4,5.6-5.1,7.5c-5,3.5-12.6,5.7-18.6,6.2c-6.9,0.6-15.9-1-18-8.9
	c-2-7.3,3.5-15.8,8.3-20.8c2.9-2.9,6.1-5.5,9.3-8.2c1.4-1.2,2.3-2.6,4-3.8c1.5-1,4.7-3.4,6.2-3.4c3.1,0.1,6.7,5.4,6.8,7.8
	c0,1-0.9,1.5-0.9,2.3c0,0.5,0.6,1.6,0.8,2.2C262,16,264.7,20.3,266.5,23.3z M257.7,30c1.1-3.1,1.2-3.2-0.2-6.1
	c-1.3-2.6-2.6-5.4-4.2-7.9c-0.2,0.4-2,1.4-2.5,1.4c-1.5,0.2-1-0.5-2.7,0.1c-1.2,0.5-2.7,2-3.7,2.9c-3,2.6-5.6,5.4-7.4,9.1
	C231.6,40.3,253.9,31.9,257.7,30z"/>
<path d="M270.5,12.7c1.6-4.8,8.2-6.1,12.3-7.6c6.1-2.2,14.9-5.9,21.4-3.8c3.2,1,9.7,9.2,3.6,10.8c-3.2,0.8-8.4-0.9-11.6-0.7
	c-3.2,0.2-6.3,1.7-9.5,2c-0.3,1.7,3,2,4,2.6c2.9,1.6,3.5,3.2,5.1,5.9c2.8,4.8,5.2,7.9,1.2,13.6c-3.5,5-21.2,15.8-23.9,6.8
	c-0.2-0.8-0.4-1.8-0.3-3.1c0.5-4.5,2.8-2.9,6.6-3.8c2.7-0.7,13.8-4.8,12.5-8.9c-1-3.1-10.1-3.2-12.5-3.6c-2.6-0.4-6.5-0.7-8.1-2.9
	C269.6,17.4,271.1,15.6,270.5,12.7z"/>
<path d="M344.3,4.4c0.2,2.8,1.9,5.2,2.2,7.9c0.2,2.6-0.7,6.4-1.7,8.9c-0.8,2-4,10.4-6.5,9c-0.6,5.3-9.3,10.5-14,12.6
	c-3.1,1.4-7.4,2.5-10.7,1.1c-3.2-1.3-4.2-5-5.8-7.8c0.4-0.1,0.8-0.2,1.2-0.4c-5.3-4.9-2.2-15.6-1.2-21.9c0.7-4.2,1.8-9.9,6-5.8
	c1.8,1.7,2.6,3.2,3.4,5.6c1.2,3.6,0.1,5-0.4,8.6c-0.3,2.3-0.9,8,1.5,8.9c3.6,1.3,10.4-4.8,12.5-7.1c4.8-5.3,5.3-10.8,6.8-17.4
	c0,0,0.9-2.8,1.1-3C340.5,0.3,341.6,1.5,344.3,4.4z"/>
</svg>
