<svg xmlns="http://www.w3.org/2000/svg" viewBox="0 0 346.6789 45.6333"><title>mugenosu</title><path d="M48.6563,43.3833q-.704.3516-1.3008.6328a3.1882,3.1882,0,0,1-1.3711.2813q-2.7422-2.0391-2.8477-7.1016a45.0065,45.0065,0,0,1,2.1446-12.8677.9058.9058,0,0,0,.3515-.8437L45,22.7813a1.9434,1.9434,0,0,0-.5273.07c-.1651.0473-.2935.2109-.3868.4922q-1.83,1.3366-4.0078,2.7773A50.9647,50.9647,0,0,1,35.543,28.793a29.9563,29.9563,0,0,1-4.7813,2.0039,15.5449,15.5449,0,0,1-4.7461.7734q-5.9062,0-8.8593-5.9765l-.5625-1.0547-.5625.914a8.2274,8.2274,0,0,0-.6329,1.16q-.4218.88-.8437,2.0039-.4219,1.1258-.7383,2.2851a5.8881,5.8881,0,0,0-.2461,2.004q-.6328.6327-1.3359,1.477A5.7877,5.7877,0,0,0,11.18,36.2817a1.3713,1.3713,0,0,0,.1406,1.0547,1.5927,1.5927,0,0,1-.6328.9844,8.1855,8.1855,0,0,1-.5977.668,3.4756,3.4756,0,0,0-.5273.6679,2.53,2.53,0,0,0-.1758.7032q-.0366.3514-.1054.7031a2.8871,2.8871,0,0,1-.1407.9141,14.4961,14.4961,0,0,1-1.8984,3.1992,2.4993,2.4993,0,0,1-1.8984.7383,12.635,12.635,0,0,1-1.8282-.211,9.4241,9.4241,0,0,1-1.6523-2.707,18.23,18.23,0,0,1-1.125-3.6914,18.7438,18.7438,0,0,1-.3516-3.9727,9.2,9.2,0,0,1,.668-3.4809q0-.0689.5625-1.4063Q2.179,29.1109,3.0586,27q.8781-2.1093,2.0039-4.6758,1.1235-2.5656,2.25-4.9922Q8.436,14.9062,9.457,12.8672A30.1234,30.1234,0,0,1,11.18,9.7734q.5618-.8437,1.0195-1.582T13.0781,6.75a29.3714,29.3714,0,0,1,2.4258-3.6211,7.7414,7.7414,0,0,1,3.41-2.2851,5.69,5.69,0,0,1,2.25,1.4765l.1406.7735q.28.7038.8437.7031c.5152.1406.9493.2705,1.3008.3867a11.4587,11.4587,0,0,0,1.16.3164,7.51,7.51,0,0,1,.914,1.3359q.5618.8438,1.09,1.6524a8.96,8.96,0,0,1,.8437,1.6172,5.1135,5.1135,0,0,1,.3516,1.6523,4.3868,4.3868,0,0,1-.3164,1.7578l.07.7032a2.6306,2.6306,0,0,1,.1406,1.7578,7.1454,7.1454,0,0,0-.07,1.02,5.3232,5.3232,0,0,0,.1406,1.16,3.8478,3.8478,0,0,0,2.25.9843,4.2036,4.2036,0,0,0,2.0743-.5273q.9492-.5274,1.7929-1.09a10.1332,10.1332,0,0,1,1.125-.7382,3.0656,3.0656,0,0,1,1.125-.3868q1.2657-1.1945,2.2852-2.1093,1.018-.9126,2.1445-1.8282a49.4739,49.4739,0,0,0,4.0781-3.6562,14.6207,14.6207,0,0,0,3.1641-4.9219,2.8227,2.8227,0,0,1,1.4766-.4219,4.2118,4.2118,0,0,1,1.6172.3516q.8438.3531,1.6171.7031a2.0226,2.0226,0,0,0,.3868.211c.1162.0473.2216.0947.3164.1406a1.5264,1.5264,0,0,0,.5625,1.1953c.1865.1406.3042.2354.3515.2813a.7526.7526,0,0,0,.211.1406,3.0521,3.0521,0,0,1,1.3359,1.125A4.362,4.362,0,0,0,57.4453,9.07a2.6708,2.6708,0,0,0,.0352,1.3008,9.6893,9.6893,0,0,0,.457,1.23c.0459.1406.0933.2812.1406.4218a3.5327,3.5327,0,0,0,.211.4922l-1.336-.1406.211,1.3359a5.4981,5.4981,0,0,1-.1758,2.18,7.4247,7.4247,0,0,1-.7383,1.8985q.0689,1.83.1055,2.8476a9.948,9.948,0,0,1-.1055,1.8985,11.5116,11.5116,0,0,1-.3867,1.6523,14.759,14.759,0,0,1-.668,1.6875,20.6142,20.6142,0,0,1-1.02,8.1919q-1.3023,3.6914-2.707,6.9258-.1422.3516-.3165.7031-.1764.3516-.3164.7031a8.57,8.57,0,0,0-1.125.4571Q49.218,43.102,48.6563,43.3833Z" transform="translate(-0.3836 -0.2813)"/><path d="M100.125,4.6406a12.89,12.89,0,0,0,.4922,2.6719q.3516,1.1258.7734,2.18.3516.9858.668,1.9336a10.9885,10.9885,0,0,1,.457,2.2851,24.7664,24.7664,0,0,0-.8086,3.375q-.2475,1.5477-.5273,3.2344Q100.0547,22.7827,99,24.68t-1.6875,3.3047a3.4469,3.4469,0,0,0-.5977.8086q-.2475.4584-.5273.9492a6.0861,6.0861,0,0,0-.3516.6328,2.356,2.356,0,0,1-.3515.5625l-1.4063-.4922-.2812,1.7578-.9844.2813-.7031.8437a21.1918,21.1918,0,0,1-2.8125,3.9029,18.5076,18.5076,0,0,1-3.34,2.8125,29.5986,29.5986,0,0,1-4.2187,2.2851q-2.3569,1.0547-5.3086,2.32-1.1968-.1405-2.0742-.1758c-.5869-.0234-1.1367-.0585-1.6524-.1054a31.897,31.897,0,0,1-3.3047-.211,1.336,1.336,0,0,0-.6328-.7734,1.75,1.75,0,0,0-.7734-.2109,3.8382,3.8382,0,0,1-1.793-1.6524q-.5976-1.09-1.16-2.3554-.3531-.7736-.7032-1.4415-.3529-.668-.7734-1.371l1.1953-.3516L63.2109,34.313a1.84,1.84,0,0,0-.3515-.3867,1.7938,1.7938,0,0,1-.3516-.3872l-.07-1.125q-.2109-4.8516-.1758-8.8946a23.3865,23.3865,0,0,1,1.09-7.207v-.7734q.2109-1.5454.4218-2.5664.211-1.0182.3516-1.9336a17.3878,17.3878,0,0,1,.6328-2.8828,2.5192,2.5192,0,0,0,1.4766-.8086q.4907-.5962.8437-1.09a1.7309,1.7309,0,0,1,1.336.2813,3.9364,3.9364,0,0,1,.7031,1.125q.3516.6327.8789,1.4062a3.3449,3.3449,0,0,0,1.582,1.1953,8.2122,8.2122,0,0,0,.3867,1.16q.2462.5983.5274,1.3008a26.85,26.85,0,0,1,1.02,2.4961,9.1711,9.1711,0,0,1,.5274,2.4961,12.2781,12.2781,0,0,0-1.09,3.0937,22.7151,22.7151,0,0,0-.4922,3.5508,20.9386,20.9386,0,0,0,.07,3.4453,11.3925,11.3925,0,0,0,.5977,2.7773l.4219.9141,1.1953-.1406a36.7267,36.7267,0,0,0,3.832-1.23,19.2759,19.2759,0,0,0,3.1992-1.582,18.5088,18.5088,0,0,0,2.8125-2.1446q1.3346-1.229,2.8125-2.8476a17.5475,17.5475,0,0,0,2.5664-3.6914,28.0656,28.0656,0,0,0,1.8282-4.3242,31.9125,31.9125,0,0,0,1.125-4.4649q.3852-2.2148.5273-4.1836a1.6442,1.6442,0,0,0,1.1953-1.6875L94.5,4.43a.9279.9279,0,0,1,0-.9844,3.3665,3.3665,0,0,1,1.9688-2.039,12.3853,12.3853,0,0,1,2.0039,1.5468Q99.3516,3.7969,100.125,4.6406Z" transform="translate(-0.3836 -0.2813)"/><path d="M150.6094,31.9922a12.347,12.347,0,0,1-4.43,4.6763,29.6827,29.6827,0,0,1-6.0469,2.7421q-3.3062,1.09-6.9258,1.9336a49.4655,49.4655,0,0,0-6.9961,2.18c-.6572,0-1.23.0235-1.7226.07s-.961.1055-1.4063.1758-.8789.1406-1.3007.211-.8907.1289-1.4063.1757c-.1875-.0468-.3057-.0117-.3516.1055a.9339.9339,0,0,1-.2109.3164,12.482,12.482,0,0,1-2.1445.211h-1.5821a6.2956,6.2956,0,0,0-1.7226.246,4.38,4.38,0,0,1-1.582.1758A11.1476,11.1476,0,0,1,104.52,41.45q-2.99-3.48-3.34-9.6684.0688-.3509-.1055-.4219a.9082.9082,0,0,1-.3164-.211,3.5783,3.5783,0,0,1,.1758-1.1953,2.4961,2.4961,0,0,0,.0352-1.2656,50.2854,50.2854,0,0,1,4.1484-7.207,26.9523,26.9523,0,0,1,5.5547-5.8711,7.3111,7.3111,0,0,0,.8437-.8438q.3516-.4218.668-.8437a3.6686,3.6686,0,0,1,.7383-.7383,2.732,2.732,0,0,1,1.0547-.457,18.8789,18.8789,0,0,1,3.5156-3.0938q2.0391-1.4055,4.2891-2.707t4.4648-2.6016a25.75,25.75,0,0,0,4.043-2.9179,1.58,1.58,0,0,0,1.125.2109,1.1014,1.1014,0,0,1,.7734,0,2.9181,2.9181,0,0,0,1.3711,1.4766q.8788.4218,1.7578.8789a9.6863,9.6863,0,0,1,1.6524,1.09A4.0916,4.0916,0,0,1,138.1641,6.75c-.2813,0-.4112.1055-.3868.3164a2.1078,2.1078,0,0,0,.1758.6328,1.208,1.208,0,0,1,.1055.6328q-.0366.3165-.5273.3164a.4553.4553,0,0,0,.457.3868c.2568.0244.3867.1528.3867.3867a.8541.8541,0,0,1-.1758.5625.7655.7655,0,0,0-.0351.7031,29.7809,29.7809,0,0,1-3.1289,1.7578q-1.7242.8438-3.586,1.793-1.8633.9492-3.8672,2.039a33.4183,33.4183,0,0,0-3.9023,2.4961q-1.8984,1.4078-3.8672,3.1289-1.9687,1.7243-3.7969,3.6211-1.83,1.8986-3.4453,3.9024a30.1451,30.1451,0,0,0-2.7422,3.9726,1.564,1.564,0,0,0,.3164.5279,1.597,1.597,0,0,1,.3164.5273,27.4387,27.4387,0,0,0,4.1836-.0351,12.9353,12.9353,0,0,1,3.9024.2461.6825.6825,0,0,0,.2812-.4219.627.627,0,0,1,.3516-.4219,52.2714,52.2714,0,0,0,7.4531-1.3013q3.4438-.8781,7.0313-1.8632c-.376-.1407-.7149-.2691-1.02-.3868-.3056-.1162-.5976-.2216-.8789-.3164-.2353-.2339-.2226-.4326.0352-.5976a3.8956,3.8956,0,0,0,.668-.5274,4.8257,4.8257,0,0,1-1.5821-1.4062,4.6422,4.6422,0,0,1-.7383-2.25,1.0634,1.0634,0,0,0,.4219-.8438.8838.8838,0,0,0-.4219-.7734c-.1875-.0459-.3056-.0459-.3515,0a.45.45,0,0,0-.1055.2109.8168.8168,0,0,1-.1055.2461c-.0468.07-.165.06-.3515-.0351a2.6312,2.6312,0,0,1,.3164-1.0547,3.7726,3.7726,0,0,0,.3867-.9844l4.8516-3.2344q.7734.564,1.8984,1.23,1.1235.6695,2.3555,1.3359,1.2289.6695,2.5312,1.336,1.3008.6695,2.4258,1.3008a6.2885,6.2885,0,0,1,1.7578,1.125q.7734.7038,1.4766,1.4414.7015.7382,1.4414,1.4414a6.9907,6.9907,0,0,0,1.7226,1.1953,2.9659,2.9659,0,0,0,.07,1.4765A3.275,3.275,0,0,1,150.6094,31.9922Z" transform="translate(-0.3836 -0.2813)"/><path d="M186.9609,5.0625a2.8935,2.8935,0,0,1,.0352.7383c-.0244.165-.0469.3164-.07.457a2.6862,2.6862,0,0,0-.0352.457,2.9176,2.9176,0,0,0,.1407.7383,8.0552,8.0552,0,0,1-3.41,3.27,16.9714,16.9714,0,0,1-4.1836,1.2656q-2.2515.3874-4.6055.8086a13.66,13.66,0,0,0-4.6757,1.8281,2.0283,2.0283,0,0,0-1.6524,0,4.1461,4.1461,0,0,1-2.1445.2109,2.3388,2.3388,0,0,1-1.0547.5977q-.6328.1765-1.2656.3867a2.8146,2.8146,0,0,1,.2461,1.3008,2.1636,2.1636,0,0,0,.1757,1.09,30.531,30.531,0,0,0,5.4493-.07q2.9881-.28,5.8711-.3515c.0458.2353.0234.3867-.07.457s-.1171.2-.07.3867a6.7526,6.7526,0,0,1,.9844.8789q.4907.5274.9844,1.02a5.2676,5.2676,0,0,0,1.0195.8085,1.9484,1.9484,0,0,0,1.2305.2461,4.2411,4.2411,0,0,1,.3867,1.2305,2.5729,2.5729,0,0,1-.1758,1.3711q-1.125.7749-2.25,1.582a18.6206,18.6206,0,0,1-2.3555,1.4414,13.8911,13.8911,0,0,1-2.6015,1.02,9.72,9.72,0,0,1-3.0586.3164h-.5274a.8476.8476,0,0,1-.457-.211,2.3494,2.3494,0,0,1-1.582.211,2.3647,2.3647,0,0,0-1.582.2109,4.167,4.167,0,0,0-1.8633-.3164,5.4981,5.4981,0,0,1-1.9336-.2461,24.2329,24.2329,0,0,0-2.0391,3.1641,27.6373,27.6373,0,0,0-1.6172,3.5864,21.61,21.61,0,0,0,3.9727.2813q1.5821-.07,2.9883-.2461t2.8828-.3516a25.7051,25.7051,0,0,1,3.7265-.1055,9.3258,9.3258,0,0,1,3.34-1.02,17.4539,17.4539,0,0,0,3.5508-.8086,2.2822,2.2822,0,0,1,.9843.7383q.4219.528.8086.9849a6.5328,6.5328,0,0,0,.8086.8086,1.3453,1.3453,0,0,0,1.0547.2812,1.488,1.488,0,0,1,.3867.668q.1055.3867.1758.7383a1.5172,1.5172,0,0,0,.2461.5976.56.56,0,0,0,.5977.1758,10.5931,10.5931,0,0,1-2.4258,3.5508,9.421,9.421,0,0,1-3.1289,1.8633,22.0646,22.0646,0,0,1-3.9024.9843q-2.1459.3516-4.7461.8438a1.7708,1.7708,0,0,1-1.0546-.0352,2.529,2.529,0,0,0-.9844-.1758q-1.6186.35-3.8672.6329a30.0824,30.0824,0,0,1-4.57.2109,20.88,20.88,0,0,1-4.43-.5977,7.2279,7.2279,0,0,1-3.4453-1.8632,2.2868,2.2868,0,0,1-.7383-1.16,1.562,1.562,0,0,0-.9492-1.0195,19.1171,19.1171,0,0,0-.2813-2.0391q-.2109-1.125-.4218-2.3555t-.3165-2.4257a7.3314,7.3314,0,0,1,.1055-2.18,4.3989,4.3989,0,0,1,.8789-1.8985,2.1117,2.1117,0,0,0,.4571-1.8281.4857.4857,0,0,0,.4218-.3867c.0459-.2109.2344-.292.5625-.2461q.4219-1.2655.9141-2.3906.4906-1.1235,1.0195-2.18.5274-1.0546,1.0547-2.1445t1.02-2.4258a5.7705,5.7705,0,0,1-1.4414-2.0039,10.98,10.98,0,0,1-.6679-2.18q-.211-1.0892-.3516-2.25a14.6707,14.6707,0,0,0-.4922-2.3555A6.03,6.03,0,0,1,153.668,7.91a10.2234,10.2234,0,0,1,2.2148-1.09,19.08,19.08,0,0,1,2.6016-.7031q1.4063-.28,2.9531-.6328,2.811-.9126,5.0273-1.4063,2.2149-.4907,4.3594-.8086,2.1446-.3163,4.4649-.5976,2.32-.28,5.2734-.8438a1.7731,1.7731,0,0,0,1.1953.6328c.1865-.4218.41-.55.668-.3867.2568.1651.3623.0352.3164-.3867a6.6385,6.6385,0,0,0,1.793,2.0039A11.5678,11.5678,0,0,0,186.9609,5.0625Z" transform="translate(-0.3836 -0.2813)"/><path d="M199.6875,31.8516a1.2723,1.2723,0,0,0-.9141.7382q-.2812.5985-.5273,1.231c-.165.4219-.3281.8086-.4922,1.16a.7907.7907,0,0,1-.7383.5273,2.0283,2.0283,0,0,1-.3867.9844c-.2109.2812-.4111.5742-.5976.8789a3.6717,3.6717,0,0,0-.4219.9844,1.9489,1.9489,0,0,0,.1406,1.23,1.8365,1.8365,0,0,0-.7031,1.1953q-.1422.7736-.3164,1.4766a2.8759,2.8759,0,0,1-.5977,1.1953,1.8149,1.8149,0,0,1-1.5469.4219c-.1406.1875-.165.3047-.07.3516s.1641.2109.211.4921a1.6219,1.6219,0,0,0-1.16.1055,2.2991,2.2991,0,0,1-.9492.3164,4.64,4.64,0,0,1-2.2149-1.4765,12.7385,12.7385,0,0,1-1.5468-2.3555q-.6695-1.3008-1.1953-2.6367-.5274-1.3361-1.02-2.32a3.3036,3.3036,0,0,0,.07-1.5118,3.0687,3.0687,0,0,0-.4921-1.23q3.4437-7.3125,7.5234-15.61,4.0767-8.2954,7.7344-16.3828,1.6172.6328,3.1992,1.4414a16.4991,16.4991,0,0,1,2.8828,1.8633,10.8717,10.8717,0,0,1,2.2148,2.4258,7.7545,7.7545,0,0,1,1.1954,3.0586q-.1422.4218-.3165.3164t-.3164.1054a1.794,1.794,0,0,1,.3164.4922.57.57,0,0,1,0,.2813,1.3849,1.3849,0,0,0,.1758,1.0547c-.1875-.0459-.3164-.023-.3867.07s-.2226.0947-.457,0a2.3872,2.3872,0,0,1,.1758,1.2656,3.2315,3.2315,0,0,1-.3164.8789,4.572,4.572,0,0,0-.3516.8437,2.0184,2.0184,0,0,0,.07,1.16.43.43,0,0,0-.3164.1055,1.3418,1.3418,0,0,0-.1758.2109,1.399,1.399,0,0,1-.1758.2109.29.29,0,0,1-.3164.0352,17.2012,17.2012,0,0,1,.1407,3.0938q-.07,1.5475-.1055,3.1289t.0351,3.3046a19.1871,19.1871,0,0,0,.4922,3.5508,11.8849,11.8849,0,0,0,4.043-3.7968,22.1787,22.1787,0,0,0,2.4609-5.2032,37.3261,37.3261,0,0,0,1.4414-6.1875q.4908-3.3039,1.0547-6.75a4.3845,4.3845,0,0,0,.9844-1.5468q.3516-.9126.6328-1.9336.28-1.0182.5625-2.0391a10.2154,10.2154,0,0,1,.7031-1.8633,3.9337,3.9337,0,0,1,1.793.668,13.0948,13.0948,0,0,1,1.3711,1.125,15.342,15.342,0,0,0,1.3359,1.125,3.6791,3.6791,0,0,0,1.7579.668q.8438,1.1967,1.5468,2.32a6.5052,6.5052,0,0,1,.9141,2.3906,4.34,4.34,0,0,0-.5274,1.2656q-.1756.704-.3867,1.4063a5.8617,5.8617,0,0,1-.5625,1.3007,3.1393,3.1393,0,0,1-.9843,1.02q-.211,1.83-.5274,3.34-.3163,1.5132-.6328,2.9883t-.5273,3.0586a20.6465,20.6465,0,0,0-.1407,3.4805q-.564,1.6186-1.1953,3.4453-.6328,1.83-.9844,3.3052a6.5677,6.5677,0,0,0-1.7578,2.18q-.6327,1.2657-1.3359,2.5313c-.1875.1875-.3057.2344-.3516.1406s-.2109-.164-.4922-.2109a.6466.6466,0,0,1,0,.4219.9369.9369,0,0,1-.1757.246.5683.5683,0,0,0-.1407.3165,1.0894,1.0894,0,0,0,.1055.5625,5.5575,5.5575,0,0,0-1.7578,1.1953,13.5109,13.5109,0,0,1-1.6524,1.4062,5.0108,5.0108,0,0,1-2.1093.8438,6.604,6.604,0,0,1-3.1992-.4922,27.035,27.035,0,0,1-5.0977-4.8516A23.0489,23.0489,0,0,1,199.6875,31.8516Z" transform="translate(-0.3836 -0.2813)"/><path d="M266.9063,23.5547a4.6363,4.6363,0,0,0,.1406,1.6172,11.496,11.496,0,0,0,.5273,1.5117q.3165.7383.5977,1.5117a9.7452,9.7452,0,0,1,.4219,1.5469,8.2019,8.2019,0,0,1,0,2.1445,12.1188,12.1188,0,0,1-.4922,2.25,8.482,8.482,0,0,1-.9141,1.9688,3.7226,3.7226,0,0,1-1.3359,1.3007,6.925,6.925,0,0,1-2.3907,1.9688,13.718,13.718,0,0,0-2.6015,1.6875,5.3453,5.3453,0,0,1-1.7227.7031q-.9492.2109-1.9336.4219-.7749.4218-1.8281.8789t-2.18.8437a13.1733,13.1733,0,0,1-2.25.5625,8.4048,8.4048,0,0,1-1.9687.1055,18.6652,18.6652,0,0,1-4.1133,1.02,14.4815,14.4815,0,0,1-4.6758-.3164,11.909,11.909,0,0,1-4.6758-.2109,10.9456,10.9456,0,0,1-3.7969-1.793,13.2505,13.2505,0,0,1-2.8828-2.9531,17.7211,17.7211,0,0,1-2.0039-3.6211,18.62,18.62,0,0,1,.2813-7.2778,24.5576,24.5576,0,0,1,2.4258-6.0469,32.0642,32.0642,0,0,1,3.6211-5.1328q2.039-2.3547,3.9375-4.6055a.7159.7159,0,0,0,.6679-.0351,1.8522,1.8522,0,0,0,.4571-.4922,5.65,5.65,0,0,1,.457-.5977,1.0554,1.0554,0,0,1,.5976-.3515,3.3856,3.3856,0,0,1,1.4414-1.5821A3.9039,3.9039,0,0,0,242.2266,9.07a3.0823,3.0823,0,0,0,1.0547-.4219,6.6478,6.6478,0,0,0,.8085-.6328c.2569-.2339.5274-.457.8086-.6679a2.7284,2.7284,0,0,1,.9844-.4571V6.1172a4.9174,4.9174,0,0,0,1.8633-1.3008q.5962-.7383,1.4414-1.793a9.9447,9.9447,0,0,1,1.0195-.07,7.0493,7.0493,0,0,0,1.16-.1406,8.2229,8.2229,0,0,1,1.0195-1.4766A6.7153,6.7153,0,0,1,253.7578.2813a5.9448,5.9448,0,0,0,1.8633.5625,3.0957,3.0957,0,0,1,1.793.914,1.8331,1.8331,0,0,0,.4218,1.09,5.4855,5.4855,0,0,0,.7735.7031q.4218.3163.8086.668a1.8369,1.8369,0,0,1,.5273.9843c.1865.0474.3164.0244.3867-.07.07-.0932.1993-.1162.3868-.07a3.0881,3.0881,0,0,0,.4921,1.3008,3.5947,3.5947,0,0,1,.5625,1.2305,6.579,6.579,0,0,0-.5273,1.4414,1.5834,1.5834,0,0,1-.8789,1.09c-.0469.3286.0459.5044.2812.5273a.4412.4412,0,0,1,.4219.3868,1.0833,1.0833,0,0,1-.2109.914,46.767,46.767,0,0,1,3.0234,5.8008A46.6389,46.6389,0,0,0,266.9063,23.5547Zm-8.7891,6.68a3.66,3.66,0,0,1,.7383-1.2656,2.3576,2.3576,0,0,0,.5273-1.4766,3.091,3.091,0,0,1-.4219-.8789,5.2258,5.2258,0,0,1-.07-1.0195,27.6578,27.6578,0,0,1-2.6718-4.6758,35.654,35.654,0,0,0-2.5313-4.6758,1.76,1.76,0,0,1-.4922.5625c-.2353.188-.4922.1406-.7734-.1406a1.3348,1.3348,0,0,1-.4922.8086,1.1363,1.1363,0,0,1-.7734.2109,3.16,3.16,0,0,1-.879-.2109,2.9658,2.9658,0,0,1-.8085-.4571q-2.0406,1.6187-4.0782,3.1641a20.3546,20.3546,0,0,0-3.6562,3.5859c-.1875.0948-.3057.13-.3516.1055s-.1875.0122-.4219.1055a11.6725,11.6725,0,0,1-1.3711,2.4257q-.8085,1.0914-1.582,2.2149a14.8172,14.8172,0,0,0-1.3359,2.3906,8.0172,8.0172,0,0,0-.6328,2.9536,5.43,5.43,0,0,0,2.8125,1.1953,15.8123,15.8123,0,0,0,3.34.07,31.6054,31.6054,0,0,0,3.375-.4571,16.3254,16.3254,0,0,1,3.0586-.3164,20.2142,20.2142,0,0,0,5.0625-1.8638Q255.797,31.43,258.1172,30.2344Z" transform="translate(-0.3836 -0.2813)"/><path d="M270.9141,13.0078a6.1694,6.1694,0,0,1,1.582-2.5312,11.78,11.78,0,0,1,2.3906-1.793,16.5516,16.5516,0,0,1,2.7071-1.2305q1.4063-.4906,2.6718-.8437,2.811-1.1946,6.0117-2.2852t6.5391-1.9336a39.1286,39.1286,0,0,1,6.8555-1.09,21.115,21.115,0,0,1,7.3828.8789,4.97,4.97,0,0,0,.6328,1.3359q.4219.6329.8789,1.2657t.8086,1.23a3.0849,3.0849,0,0,1,.4219,1.2305,5.5881,5.5881,0,0,1,1.125,1.3711,2.63,2.63,0,0,1,.1406,1.9336q-.7031.564-1.3711,1.0195a9.45,9.45,0,0,1-1.4414.8086,16.6335,16.6335,0,0,0-5.2734-.4219q-2.6735.2111-4.7813.3516a2.0632,2.0632,0,0,0-1.5117-.6328,6.4573,6.4573,0,0,0-1.8281.2812q-.9492.282-1.8985.5625a3.9476,3.9476,0,0,1-1.7929.1407,3.6989,3.6989,0,0,1-1.7227.7382q-1.02.1765-2.2148.3164c-.0469.2354,0,.3868.1406.4571s.1641.2231.07.457a2.3119,2.3119,0,0,0,1.09.7031q.6681.2111,1.4063.4219a6.0448,6.0448,0,0,1,1.3008.5273,1.6586,1.6586,0,0,1,.7734,1.02,3.3422,3.3422,0,0,1,1.8281.4922,4.4353,4.4353,0,0,1,1.2657,1.1953,5.3963,5.3963,0,0,1,.7382,1.5117,5.02,5.02,0,0,1,.2461,1.4414q.2111.564.4922.4922.28-.0689.6328.2812a4.3351,4.3351,0,0,0,1.0547,1.8633,7.8553,7.8553,0,0,1,1.336,2.0742q.1405,1.7586.2109,3.1289a6.5343,6.5343,0,0,1-.4922,2.7774,15.406,15.406,0,0,1-2.918,4.6411,23.2373,23.2373,0,0,1-4.2187,3.6211,29.6152,29.6152,0,0,1-5.0273,2.707,55.0351,55.0351,0,0,1-5.2032,1.8985,1.1189,1.1189,0,0,0-.5625,0c-.1875.0449-.2353-.07-.1406-.3516a2.7394,2.7394,0,0,1-1.2305.6328,5.8209,5.8209,0,0,1-1.4414.1055q-.7749-.0381-1.582-.1055a5.2273,5.2273,0,0,0-1.5117.07c-.3281-.3291-.6221-.6455-.8789-.9492a3.1911,3.1911,0,0,1-.5977-1.16q-.3529,0-.3164-.3516c.0234-.2344-.06-.3516-.2461-.3516q.422-.703.3867-.8086a.3345.3345,0,0,0-.2109-.1757,1.3759,1.3759,0,0,1-.3164-.1758.2556.2556,0,0,1-.07-.3164,2.3746,2.3746,0,0,0,.2109-1.3008c-.0469-.4922-.0947-.9961-.1406-1.5117a4.4035,4.4035,0,0,1,.1055-1.4766,1.7589,1.7589,0,0,1,1.02-1.125,13.87,13.87,0,0,0,4.5351-.1758,20.3873,20.3873,0,0,0,4.043-1.3008,40.0594,40.0594,0,0,0,3.6211-1.8286q1.7226-.9835,3.41-1.7578a2.8875,2.8875,0,0,1,.5976-1.0547,8.3608,8.3608,0,0,1,.8086-.7734,6.064,6.064,0,0,0,.7735-.7734,2.4589,2.4589,0,0,0,.4921-1.0547c.0459-.3272-.0351-.5274-.2461-.5977a.4872.4872,0,0,1-.3164-.5273l-.7734-.211a14.8988,14.8988,0,0,0-3.0234-1.3008,17.0945,17.0945,0,0,1-2.8828-1.16,1.8067,1.8067,0,0,1-1.4415.2109,16.98,16.98,0,0,0-1.7226-.4218q-2.3907-.14-4.6055-.4922a16.7478,16.7478,0,0,1-4.2539-1.2657,2.8114,2.8114,0,0,0-.3515-.6328q-.2111-.28-.7735-.1406-.4218-.5618-.8437-1.09a8.3193,8.3193,0,0,1-.7735-1.16q.1407-.8437.211-1.4414a1.4811,1.4811,0,0,0-.4219-1.16q.28-.9126.4219-1.4765A3.8589,3.8589,0,0,0,270.9141,13.0078Z" transform="translate(-0.3836 -0.2813)"/><path d="M344.6719,4.6406a12.883,12.883,0,0,0,.4922,2.6719q.3514,1.1258.7734,2.18.3516.9858.668,1.9336a10.9885,10.9885,0,0,1,.457,2.2851,24.7664,24.7664,0,0,0-.8086,3.375q-.2475,1.5477-.5273,3.2344-1.125,2.4624-2.18,4.3594t-1.6875,3.3047a3.4469,3.4469,0,0,0-.5977.8086q-.2475.4584-.5273.9492a6.0487,6.0487,0,0,0-.3516.6328,2.356,2.356,0,0,1-.3515.5625l-1.4063-.4922-.2812,1.7578-.9844.2813-.7031.8437a21.2011,21.2011,0,0,1-2.8125,3.9029,18.5076,18.5076,0,0,1-3.34,2.8125,29.5986,29.5986,0,0,1-4.2187,2.2851q-2.3569,1.0547-5.3086,2.32-1.1969-.1405-2.0743-.1758-.88-.0351-1.6523-.1054a31.8953,31.8953,0,0,1-3.3047-.211,1.336,1.336,0,0,0-.6328-.7734,1.75,1.75,0,0,0-.7734-.2109,3.8382,3.8382,0,0,1-1.793-1.6524q-.5976-1.09-1.16-2.3554-.353-.7736-.7031-1.4415-.3529-.668-.7734-1.371l1.1953-.3516-1.5469-1.6875a1.84,1.84,0,0,0-.3515-.3867,1.8016,1.8016,0,0,1-.3516-.3872l-.07-1.125q-.2109-4.8516-.1758-8.8946a23.4016,23.4016,0,0,1,1.09-7.207v-.7734q.2111-1.5454.4219-2.5664.2109-1.0182.3516-1.9336a17.3776,17.3776,0,0,1,.6328-2.8828,2.52,2.52,0,0,0,1.4766-.8086q.4907-.5962.8437-1.09a1.7305,1.7305,0,0,1,1.3359.2813,3.9341,3.9341,0,0,1,.7032,1.125q.3514.6327.8789,1.4062a3.3444,3.3444,0,0,0,1.582,1.1953,8.2122,8.2122,0,0,0,.3867,1.16q.2461.5983.5274,1.3008a26.8777,26.8777,0,0,1,1.0195,2.4961,9.167,9.167,0,0,1,.5273,2.4961,12.278,12.278,0,0,0-1.09,3.0937,22.7151,22.7151,0,0,0-.4922,3.5508,20.9275,20.9275,0,0,0,.07,3.4453,11.3832,11.3832,0,0,0,.5977,2.7773l.4219.9141,1.1953-.1406a36.7267,36.7267,0,0,0,3.832-1.23,19.2837,19.2837,0,0,0,3.1992-1.582,18.5088,18.5088,0,0,0,2.8125-2.1446q1.3346-1.229,2.8125-2.8476a17.5475,17.5475,0,0,0,2.5664-3.6914,28.0553,28.0553,0,0,0,1.8281-4.3242,31.9125,31.9125,0,0,0,1.125-4.4649q.3853-2.2148.5274-4.1836a1.6442,1.6442,0,0,0,1.1953-1.6875l-.1406-.7734a.9279.9279,0,0,1,0-.9844,3.3663,3.3663,0,0,1,1.9687-2.039A12.3809,12.3809,0,0,1,343.02,2.9531Q343.8985,3.7969,344.6719,4.6406Z" transform="translate(-0.3836 -0.2813)"/></svg>