<?xml version="1.0" encoding="utf-8"?>
<!-- Generator: Adobe Illustrator 23.0.1, SVG Export Plug-In . SVG Version: 6.00 Build 0)  -->
<svg version="1.1" id="Layer_1" xmlns="http://www.w3.org/2000/svg" xmlns:xlink="http://www.w3.org/1999/xlink" x="0px" y="0px"
	 viewBox="0 0 573.3 615.7" style="enable-background:new 0 0 573.3 615.7;" xml:space="preserve">
<style type="text/css">
	.st0{fill:none;stroke:#000000;stroke-miterlimit:10;}
</style>
<g>
	<path class="st0" d="M274.1,301.5L274.1,301.5L274.1,301.5c0,0,2.5-0.4,2.5-0.4c0,0-3.1,3.7-3.1,3.7c0,0-1.2-6.1-1.1-6.2
		c0.1,0,6.8,2.1,6.8,2.2c0,0.1-6.3,7.3-6.4,7.2c-0.1-0.1-2.2-12.2-2.1-12.3c0.1-0.1,11.2,4.9,11.2,5.1c0,0.3-9.7,10.5-9.9,10.4
		c-0.3-0.2-3.2-18.2-3-18.4c0.3-0.2,15.8,7.9,15.8,8.3c0,0.4-13.4,13.5-13.7,13.3c-0.5-0.3-4.1-24.2-3.7-24.5
		c0.4-0.3,20.5,11,20.6,11.7c0.1,0.7-17.3,16.2-17.8,15.9c-0.7-0.5-4.9-30.1-4.3-30.5c0.6-0.4,25.3,14.4,25.4,15.4
		c0.1,1-21.4,18.6-22.1,18.1c-1.1-0.7-5.6-35.9-4.7-36.5c0.9-0.6,30.3,18,30.4,19.4c0.1,1.3-25.8,20.7-26.8,20.1
		c-1.4-1-6.2-41.7-5-42.4c1.2-0.8,35.3,21.7,35.5,23.6c0.1,1.7-30.4,22.6-31.7,21.6c-1.9-1.3-6.8-47.4-5.2-48.3
		c1.6-0.9,40.5,25.6,40.7,28.1c0.2,2.1-35.1,24.2-36.8,23c-2.3-1.7-7.2-53-5.2-54c2.1-1.1,45.7,29.7,45.9,32.7
		c0.2,2.6-40.1,25.6-42.2,24c-2.9-2.2-7.4-58.6-5-59.7c2.6-1.3,50.9,33.8,51.1,37.5c0.2,3.1-45.1,26.8-47.7,24.8
		c-3.4-2.7-7.6-64-4.6-65.3c3.2-1.4,56.1,37.9,56.3,42.3c0.2,3.7-50.2,27.9-53.3,25.4c-4.1-3.2-7.6-69.4-4.1-70.8
		c3.9-1.6,61.2,42,61.3,47.2c0.1,4.3-55.4,28.9-59.1,25.9c-4.7-3.8-7.5-74.6-3.3-76.2c4.6-1.8,66.1,46.1,66.2,52.1
		c0.1,5-60.5,29.8-64.9,26.3c-5.4-4.4-7.1-79.7-2.3-81.4c5.4-1.9,70.9,50.1,70.9,56.9c0,5.7-65.7,30.7-70.7,26.5
		c-6.1-5.1-6.6-84.6-1-86.4c6.3-2.1,75.5,53.9,75.4,61.6c-0.1,6.4-70.8,31.6-76.5,26.7c-6.8-5.8-5.9-89.3,0.5-91.3
		c7.2-2.3,79.8,57.6,79.5,66.2c-0.2,7.2-75.9,32.5-82.3,26.9c-7.6-6.5-4.9-93.8,2.3-95.9c8.2-2.4,83.8,61,83.4,70.6
		c-0.4,8-80.8,33.4-88.1,27c-8.3-7.3-3.8-98.1,4.3-100.4c9.2-2.6,87.6,64.3,86.9,74.8c-0.6,8.9-85.7,34.3-93.7,27.2
		c-9-8-2.5-102.3,6.6-104.7c10.3-2.8,91.1,67.4,90.1,78.8c-0.9,9.8-90.5,35.3-99.3,27.4c-9.7-8.8-0.9-106.3,9.1-108.8
		c11.4-2.9,94.3,70.3,92.9,82.7c-1.2,10.8-95.2,36.3-104.8,27.6c-10.5-9.6,0.7-110.1,11.8-112.8c12.5-3.1,97.2,73,95.5,86.3
		c-1.5,11.8-99.8,37.4-110.1,27.8c-11.2-10.4,2.5-113.8,14.7-116.7c13.7-3.3,99.9,75.6,97.8,89.9c-1.9,12.8-104.3,38.6-115.3,28.1
		c-11.9-11.2,4.5-117.4,17.7-120.5c14.9-3.5,102.4,78,99.8,93.3c-2.4,13.9-108.6,39.8-120.4,28.4c-12.6-12.1,6.4-121,20.9-124.2
		c16.1-3.6,104.7,80.3,101.6,96.6c-2.9,15-112.8,41.1-125.4,28.8c-13.2-13,8.4-124.5,24.2-127.9c17.4-3.8,106.8,82.5,103.1,99.9
		c-3.4,16.2-116.9,42.5-130.2,29.2c-13.9-13.9,10.4-127.9,27.5-131.6c18.6-4,108.7,84.6,104.5,103.1c-4,17.4-120.9,43.9-134.9,29.7
		c-14.6-14.8,12.5-131.4,30.9-135.3c19.9-4.2,110.5,86.7,105.7,106.3c-4.6,18.6-124.8,45.4-139.5,30.2
		c-15.3-15.8,14.5-134.9,34.3-139c21.1-4.4,112.3,88.8,106.8,109.4c-5.3,19.9-128.7,46.9-144.1,30.6
		c-15.9-16.8,16.6-138.3,37.8-142.6c22.4-4.6,113.9,90.8,107.7,112.7c-6,21.3-132.5,48.3-148.6,31c-16.6-17.9,18.7-141.6,41.5-146.2
		c23.8-4.8,115.5,92.9,108.6,115.9c-6.8,22.6-136.4,49.7-153.1,31.3c-17.3-18.9,21-144.9,45.3-149.7c25.1-5,117,95,109.3,119.1
		c-7.7,24-140.3,50.9-157.6,31.5c-17.9-20.1,23.3-148.1,49.2-153.1c26.6-5.1,118.5,97.1,109.9,122.4
		c-8.7,25.5-144.3,52.1-162.3,31.5c-18.5-21.2,25.7-151.2,53.3-156.3c28-5.2,120,99.3,110.4,125.8c-9.7,26.9-148.3,53.1-166.9,31.3
		c-19.1-22.4,28.1-154.2,57.5-159.5c29.5-5.3,121.4,101.5,110.9,129.2c-10.8,28.4-152.4,54.1-171.6,31
		c-19.7-23.7,30.6-157.3,61.9-162.6c31.1-5.4,122.9,103.9,111.4,132.8c-11.9,29.9-156.5,55-176.4,30.6
		c-20.4-25,33.1-160.3,66.2-165.7c32.8-5.4,124.5,106.4,111.9,136.6c-13.1,31.4-160.7,55.7-181.2,30c-21-26.3,35.5-163.5,70.6-168.9
		c34.5-5.3,126.2,109,112.5,140.5c-14.3,33-164.9,56.5-186,29.3C167.6,342.9,227,204,264.1,198.6c36.3-5.3,128,111.8,113.2,144.8
		c-15.5,34.6-169.1,57.1-190.9,28.4c-22.3-29.4,39.9-170.3,79-175.6c38.2-5.2,130.1,114.9,114.2,149.4
		c-16.8,36.2-173.3,57.7-195.9,27.4c-23.1-31.1,41.9-174,83.1-179.1c40.2-5,132.4,118.3,115.3,154.3c-18,37.9-177.5,58.3-200.9,26.1
		c-23.9-32.9,43.7-178,86.9-182.9c42.2-4.8,135,121.8,116.7,159.6c-19.2,39.6-181.8,58.8-206,24.7C154,340.8,224,193.5,269.4,188.8
		c44.4-4.6,137.8,125.7,118.3,165.3c-20.4,41.4-186,59.2-211.1,23.1c-25.8-37,46.5-186.7,94.1-191.1
		c46.7-4.3,140.9,129.8,120.1,171.3c-21.6,43.2-190.2,59.6-216.4,21.4c-26.8-39.3,47.7-191.4,97.4-195.5
		c49.1-4,144.2,134,122.1,177.7c-22.7,45-194.5,59.9-221.6,19.4c-27.9-41.7,48.7-196.3,100.6-200c51.5-3.6,147.6,138.4,124.2,184.2
		c-23.9,46.9-198.7,60.2-226.9,17.3c-29-44.2,49.7-201.3,103.8-204.5c54-3.2,151.1,142.9,126.4,191
		c-25.1,48.8-202.9,60.5-232.3,15.1c-30.2-46.8,50.6-206.4,107-209.1c56.6-2.7,154.6,147.5,128.5,197.8
		C377.5,423,196.6,433,166.2,385c-31.4-49.5,51.5-211.5,110.2-213.7c59.2-2.2,158,152.1,130.5,204.7c-27.6,52.7-211.4,60.9-243,10.2
		c-32.5-52.3,52.5-216.5,113.5-218.1c61.9-1.7,161.4,156.6,132.3,211.5c-29,54.7-215.7,61-248.4,7.6
		c-33.7-55.1,53.7-221.3,117.1-222.3C343,163.8,443,326,412.3,383.1c-30.4,56.6-220.1,60.9-253.8,4.8
		c-34.7-57.9,55-225.9,120.9-226.3c67.3-0.4,167.7,165.5,135.3,224.8c-32,58.6-224.5,60.8-259.2,1.8
		c-35.7-60.7,56.7-230.2,125.1-229.9c70.1,0.3,170.5,169.8,136.2,231.1c-33.8,60.5-229.1,60.6-264.7-1.3
		c-36.6-63.5,58.8-234.1,129.8-233c72.9,1.1,173,173.9,136.7,237.1c-35.8,62.4-233.7,60.2-270.2-4.5
		c-37.3-66.2,61.2-237.6,134.9-235.7c75.7,2,175.1,177.9,136.7,242.8c-38,64.3-238.5,59.6-275.6-7.9
		c-37.9-68.9,64-240.7,140.5-237.8c78.4,2.9,176.9,181.6,136.3,248.1c-40.4,66.1-243.4,58.9-281.1-11.4
		c-38.3-71.4,67.1-243.3,146.6-239.5c81.2,3.9,178.4,185.2,135.3,253.1c-43.1,67.8-248.5,58.1-286.6-15
		c-38.6-73.9,70.7-245.6,153.2-240.7c84,5,179.7,188.7,134,257.7c-46,69.6-253.7,57.1-292.1-18.8c-38.7-76.4,74.5-247.6,160.2-241.5
		c86.8,6.1,180.6,192.1,132.2,262.1c-49.2,71.2-258.9,55.9-297.6-22.7c-38.8-78.8,78.5-249.3,167.5-242
		c89.7,7.4,181.4,195.4,130.2,266.4c-52.5,72.8-264.3,54.7-303-26.6c-38.7-81.3,82.7-250.8,175-242.2c92.5,8.7,182,198.6,128,270.5
		c-56,74.4-269.6,53.4-308.3-30.7c-38.6-83.7,86.9-252.3,182.7-242.2c95.4,10,182.6,201.9,125.6,274.6
		c-59.6,76-274.9,52.1-313.6-34.8c-38.4-86.2,91-253.9,190.3-242.3c98.2,11.5,183.2,205.2,123.2,278.8
		c-63.2,77.6-280.2,50.9-318.8-38.9C65.7,282.5,199,115.8,301.8,129c101.2,12.9,183.8,208.6,120.8,283.2
		c-66.9,79.1-285.3,49.7-323.8-43c-38-91.6,98.9-257.6,205.2-242.8c104.1,14.5,184.6,212.1,118.6,287.8
		c-70.5,80.8-290.2,48.7-328.6-47c-37.9-94.5,102.3-259.9,212.1-243.5c107.1,16,185.6,215.7,116.5,292.7
		c-73.9,82.4-294.9,47.8-333.2-51.1C51.5,267.6,194.8,102.6,308,120.7c110.2,17.7,186.9,219.4,114.8,298
		c-77.2,84.2-299.3,47.2-337.7-55C47.2,262.6,193.2,97.6,309.7,117.5c113.4,19.3,188.5,223.4,113.4,303.8
		c-80.3,86.1-303.5,46.8-342-59C43,257.7,191.5,92.5,311.2,114.1c116.6,21.1,190.5,227.6,112.4,310.1c-83.2,88-307.4,46.5-346.2-63
		C39.1,252.7,189.8,87.1,312.6,110.5c120,22.9,192.8,232,111.8,316.9c-85.9,90.1-311.1,46.5-350.3-67
		C35.3,247.8,188,81.5,313.8,106.7c123.5,24.8,195.4,236.7,111.4,324.1c-88.5,92.2-314.7,46.5-354.3-71.1
		c-39.3-116.9,115.2-284,243.9-256.9c127.1,26.7,198.2,241.4,111.3,331.6C335.3,528.8,108,481.1,68,359.2
		C28.1,237.8,184.4,69.9,315.9,98.9c130.7,28.8,201.2,246.3,111.4,339.4c-93.2,96.6-321.6,46.8-362.2-79.6
		C24.7,232.7,182.6,64,317,94.9c134.5,30.9,204.3,251.3,111.5,347.3c-95.6,98.8-325,46.9-366.1-84C21.4,227.5,181,58.1,318.3,91.1
		c138.2,33.2,207.4,256.4,111.5,355.3c-98,101.1-328.4,47-370-88.6C18.3,222.4,179.5,52.3,319.6,87.4
		c142,35.5,210.4,261.4,111.4,363.2c-100.4,103.3-331.8,47-373.8-93.3c-42-140.2,120.9-310.7,264-273.5
		C467,121.8,534.6,350.2,432.3,454.9c-103,105.5-335.3,47-377.7-98.1C12.3,211.8,177,41.1,323,80.6
		C472.6,121,539.2,351.9,433.6,459.3c-105.7,107.6-338.9,46.8-381.5-103c-42.6-149.9,124-320.6,273-278.8
		c153.3,43,218.7,276.2,109.7,386.2C326.1,573.4,92.2,510.3,49.5,355.6C6.8,201,175.3,30.4,327.4,74.7
		c157.1,45.7,221.2,281,108.6,393.5C324.2,579.8,89.6,514.3,46.9,354.9C4.2,195.5,174.8,25.2,330,72.1
		c160.8,48.5,223.4,285.8,107.1,400.6C322,586.2,86.8,518.3,44.3,354.1C1.8,189.9,174.4,20.2,332.8,69.8
		c164.6,51.4,225.5,290.4,105.3,407.4C319.6,592.6,83.9,522.2,41.7,353.2C-0.4,184.4,174.2,15.4,335.9,67.6
		c168.2,54.4,227.3,295,103.3,414.1C317,599,81,526.2,39.3,352.4C-2.5,178.8,174.3,10.7,339.1,65.7
		c171.8,57.4,229,299.4,100.9,420.5C314.2,605.3,78.1,530.1,36.9,351.7C-4.3,173.3,174.5,6.1,342.5,63.9
		c175.3,60.3,230.4,303.6,98.3,426.8C311.3,611.5,75.3,534.1,34.7,351C-5.8,167.8,174.8,1.6,346,62.2
		c178.6,63.3,231.7,307.6,95.5,432.9c-133.2,122.6-369,43.1-408.7-144.7C-7.1,162.2,175.3-2.9,349.4,60.4
		c181.9,66.2,232.8,311.4,92.4,438.9C305,623.6,69.7,542.3,30.8,349.9C-8.3,156.6,175.8-7.5,352.8,58.6
		c185,69.1,233.8,315.1,89.4,444.9c-140.4,126.1-375,43-413.1-154.1C-9.2,150.9,176.2-12.3,355.9,56.5
		c188,72,234.9,318.8,86.3,451.1C298.4,635.5,64.5,550.8,27.4,348.9C-10.1,145,176.6-17.3,358.8,54.2
		c191,74.9,236.1,322.5,83.3,457.4c-147,129.8-380.2,43.5-416.5-163.3C-11.1,138.9,176.8-22.5,361.5,51.7
		c194.1,78,237.4,326.3,80.4,463.9c-150.3,131.7-382.7,43.8-418.1-168C-12.1,132.5,176.8-28,364,49
		c197.2,81.1,238.9,330.2,77.6,470.5C288.1,653,56.4,563.6,21.9,346.6C-13.2,125.7,176.8-33.8,366.4,46.1
		c200.4,84.5,240.4,334.4,74.9,477.3c-156.8,135.3-388,44.2-421.5-178.1c-34.2-226.6,156.9-385.1,349-302
		c203.7,88.1,242.1,338.8,72.1,484.1c-160.4,137.1-391,44-423.6-183.7C-16,111.3,176.4-45.9,371.2,40.5
		C578.4,132.5,615,384,440.4,531.4C276.1,670,45.9,574.9,14.4,341.6C-17.6,103.7,176.2-52.1,373.8,38
		c210.8,96.1,245.5,348.4,66.1,497.5C271.4,675.5,41.5,578,11.4,339.1C-19.3,95.9,176.2-58.1,376.9,35.9
		C591.5,136.4,624,389.5,439.5,539.7C266.2,680.9,36.5,580.8,8,336.3C-21,88.1,176.4-64,380.5,34.3C598.9,139.5,629,393.1,439.1,544
		C260.3,686,31,583.1,4.4,333.2C-22.6,80.1,176.9-69.6,384.7,33.3c222.2,110,249.5,364.2,54,515C253.8,690.9,24.9,584.9,0.5,329.7"
		/>
	<path class="st0" d="M277.1,304.5L277.1,304.5L277.1,304.5c0,0,2.5-0.4,2.5-0.4c0,0-3.1,3.7-3.1,3.7c0,0-1.2-6.1-1.1-6.2
		c0.1,0,6.8,2.1,6.8,2.2c0,0.1-6.3,7.3-6.4,7.2c-0.1-0.1-2.2-12.2-2.1-12.3c0.1-0.1,11.2,4.9,11.2,5.1c0,0.3-9.7,10.5-9.9,10.4
		c-0.3-0.2-3.2-18.2-3-18.4c0.3-0.2,15.8,7.9,15.8,8.3c0,0.4-13.4,13.5-13.7,13.3c-0.5-0.3-4.1-24.2-3.7-24.5
		c0.4-0.3,20.5,11,20.6,11.7c0.1,0.7-17.3,16.2-17.8,15.9c-0.7-0.5-4.9-30.1-4.3-30.5c0.6-0.4,25.3,14.4,25.4,15.4
		c0.1,1-21.4,18.6-22.1,18.1c-1.1-0.7-5.6-35.9-4.7-36.5c0.9-0.6,30.3,18,30.4,19.4c0.1,1.3-25.8,20.7-26.8,20.1
		c-1.4-1-6.2-41.7-5-42.4c1.2-0.8,35.3,21.7,35.5,23.6c0.1,1.7-30.4,22.6-31.7,21.6c-1.9-1.3-6.8-47.4-5.2-48.3
		c1.6-0.9,40.5,25.6,40.7,28.1c0.2,2.1-35.1,24.2-36.8,23c-2.3-1.7-7.2-53-5.2-54c2.1-1.1,45.7,29.7,45.9,32.7
		c0.2,2.6-40.1,25.6-42.2,24c-2.9-2.2-7.4-58.6-5-59.7c2.6-1.3,50.9,33.8,51.1,37.5c0.2,3.1-45.1,26.8-47.7,24.8
		c-3.4-2.7-7.6-64-4.6-65.3c3.2-1.4,56.1,37.9,56.3,42.3c0.2,3.7-50.2,27.9-53.3,25.4c-4.1-3.2-7.6-69.4-4.1-70.8
		c3.9-1.6,61.2,42,61.3,47.2c0.1,4.3-55.4,28.9-59.1,25.9c-4.7-3.8-7.5-74.6-3.3-76.2c4.6-1.8,66.1,46.1,66.2,52.1
		c0.1,5-60.5,29.8-64.9,26.3c-5.4-4.4-7.1-79.7-2.3-81.4c5.4-1.9,70.9,50.1,70.9,56.9c0,5.7-65.7,30.7-70.7,26.5
		c-6.1-5.1-6.6-84.6-1-86.4c6.3-2.1,75.5,53.9,75.4,61.6c-0.1,6.4-70.8,31.6-76.5,26.7c-6.8-5.8-5.9-89.3,0.5-91.3
		c7.2-2.3,79.8,57.6,79.5,66.2c-0.2,7.2-75.9,32.5-82.3,26.9c-7.6-6.5-4.9-93.8,2.3-95.9c8.2-2.4,83.8,61,83.4,70.6
		c-0.4,8-80.8,33.4-88.1,27c-8.3-7.3-3.8-98.1,4.3-100.4c9.2-2.6,87.6,64.3,86.9,74.8c-0.6,8.9-85.7,34.3-93.7,27.2
		c-9-8-2.5-102.3,6.6-104.7c10.3-2.8,91.1,67.4,90.1,78.8c-0.9,9.8-90.5,35.3-99.3,27.4c-9.7-8.8-0.9-106.3,9.1-108.8
		c11.4-2.9,94.3,70.3,92.9,82.7c-1.2,10.8-95.2,36.3-104.8,27.6c-10.5-9.6,0.7-110.1,11.8-112.8c12.5-3.1,97.2,73,95.5,86.3
		c-1.5,11.8-99.8,37.4-110.1,27.8c-11.2-10.4,2.5-113.8,14.7-116.7c13.7-3.3,99.9,75.6,97.8,89.9c-1.9,12.8-104.3,38.6-115.3,28.1
		c-11.9-11.2,4.5-117.4,17.7-120.5c14.9-3.5,102.4,78,99.8,93.3c-2.4,13.9-108.6,39.8-120.4,28.4c-12.6-12.1,6.4-121,20.9-124.2
		c16.1-3.6,104.7,80.3,101.6,96.6c-2.9,15-112.8,41.1-125.4,28.8c-13.2-13,8.4-124.5,24.2-127.9c17.4-3.8,106.8,82.5,103.1,99.9
		c-3.4,16.2-116.9,42.5-130.2,29.2c-13.9-13.9,10.4-127.9,27.5-131.6c18.6-4,108.7,84.6,104.5,103.1c-4,17.4-120.9,43.9-134.9,29.7
		c-14.6-14.8,12.5-131.4,30.9-135.3c19.9-4.2,110.5,86.7,105.7,106.3c-4.6,18.6-124.8,45.4-139.5,30.2
		c-15.3-15.8,14.5-134.9,34.3-139c21.1-4.4,112.3,88.8,106.8,109.4c-5.3,19.9-128.7,46.9-144.1,30.6
		c-15.9-16.8,16.6-138.3,37.8-142.6c22.4-4.6,113.9,90.8,107.7,112.7c-6,21.3-132.5,48.3-148.6,31c-16.6-17.9,18.7-141.6,41.5-146.2
		c23.8-4.8,115.5,92.9,108.6,115.9c-6.8,22.6-136.4,49.7-153.1,31.3c-17.3-18.9,21-144.9,45.3-149.7c25.1-5,117,95,109.3,119.1
		c-7.7,24-140.3,50.9-157.6,31.5c-17.9-20.1,23.3-148.1,49.2-153.1c26.6-5.1,118.5,97.1,109.9,122.4
		c-8.7,25.5-144.3,52.1-162.3,31.5c-18.5-21.2,25.7-151.2,53.3-156.3c28-5.2,120,99.3,110.4,125.8c-9.7,26.9-148.3,53.1-166.9,31.3
		c-19.1-22.4,28.1-154.2,57.5-159.5c29.5-5.3,121.4,101.5,110.9,129.2c-10.8,28.4-152.4,54.1-171.6,31
		c-19.7-23.7,30.6-157.3,61.9-162.6c31.1-5.4,122.9,103.9,111.4,132.8c-11.9,29.9-156.5,55-176.4,30.6
		c-20.4-25,33.1-160.3,66.2-165.7c32.8-5.4,124.5,106.4,111.9,136.6c-13.1,31.4-160.7,55.7-181.2,30c-21-26.3,35.5-163.5,70.6-168.9
		c34.5-5.3,126.2,109,112.5,140.5c-14.3,33-164.9,56.5-186,29.3C170.6,345.9,230,207,267.1,201.6c36.3-5.3,128,111.8,113.2,144.8
		c-15.5,34.6-169.1,57.1-190.9,28.4c-22.3-29.4,39.9-170.3,79-175.6c38.2-5.2,130.1,114.9,114.2,149.4
		c-16.8,36.2-173.3,57.7-195.9,27.4c-23.1-31.1,41.9-174,83.1-179.1c40.2-5,132.4,118.3,115.3,154.3c-18,37.9-177.5,58.3-200.9,26.1
		c-23.9-32.9,43.7-178,86.9-182.9c42.2-4.8,135,121.8,116.7,159.6c-19.2,39.6-181.8,58.8-206,24.7C157,343.8,227,196.5,272.4,191.8
		c44.4-4.6,137.8,125.7,118.3,165.3c-20.4,41.4-186,59.2-211.1,23.1c-25.8-37,46.5-186.7,94.1-191.1
		c46.7-4.3,140.9,129.8,120.1,171.3c-21.6,43.2-190.2,59.6-216.4,21.4c-26.8-39.3,47.7-191.4,97.4-195.5
		c49.1-4,144.2,134,122.1,177.7c-22.7,45-194.5,59.9-221.6,19.4c-27.9-41.7,48.7-196.3,100.6-200c51.5-3.6,147.6,138.4,124.2,184.2
		c-23.9,46.9-198.7,60.2-226.9,17.3c-29-44.2,49.7-201.3,103.8-204.5c54-3.2,151.1,142.9,126.4,191
		c-25.1,48.8-202.9,60.5-232.3,15.1c-30.2-46.8,50.6-206.4,107-209.1c56.6-2.7,154.6,147.5,128.5,197.8
		C380.5,426,199.6,436,169.2,388c-31.4-49.5,51.5-211.5,110.2-213.7c59.2-2.2,158,152.1,130.5,204.7c-27.6,52.7-211.4,60.9-243,10.2
		c-32.5-52.3,52.5-216.5,113.5-218.1c61.9-1.7,161.4,156.6,132.3,211.5c-29,54.7-215.7,61-248.4,7.6
		c-33.7-55.1,53.7-221.3,117.1-222.3C346,166.8,446,329,415.3,386.1c-30.4,56.6-220.1,60.9-253.8,4.8
		c-34.7-57.9,55-225.9,120.9-226.3c67.3-0.4,167.7,165.5,135.3,224.8c-32,58.6-224.5,60.8-259.2,1.8
		c-35.7-60.7,56.7-230.2,125.1-229.9c70.1,0.3,170.5,169.8,136.2,231.1c-33.8,60.5-229.1,60.6-264.7-1.3
		c-36.6-63.5,58.8-234.1,129.8-233c72.9,1.1,173,173.9,136.7,237.1c-35.8,62.4-233.7,60.2-270.2-4.5
		c-37.3-66.2,61.2-237.6,134.9-235.7c75.7,2,175.1,177.9,136.7,242.8c-38,64.3-238.5,59.6-275.6-7.9
		c-37.9-68.9,64-240.7,140.5-237.8c78.4,2.9,176.9,181.6,136.3,248.1c-40.4,66.1-243.4,58.9-281.1-11.4
		c-38.3-71.4,67.1-243.3,146.6-239.5c81.2,3.9,178.4,185.2,135.3,253.1c-43.1,67.8-248.5,58.1-286.6-15
		c-38.6-73.9,70.7-245.6,153.2-240.7c84,5,179.7,188.7,134,257.7c-46,69.6-253.7,57.1-292.1-18.8c-38.7-76.4,74.5-247.6,160.2-241.5
		c86.8,6.1,180.6,192.1,132.2,262.1c-49.2,71.2-258.9,55.9-297.6-22.7c-38.8-78.8,78.5-249.3,167.5-242
		c89.7,7.4,181.4,195.4,130.2,266.4c-52.5,72.8-264.3,54.7-303-26.6c-38.7-81.3,82.7-250.8,175-242.2c92.5,8.7,182,198.6,128,270.5
		c-56,74.4-269.6,53.4-308.3-30.7c-38.6-83.7,86.9-252.3,182.7-242.2c95.4,10,182.6,201.9,125.6,274.6
		c-59.6,76-274.9,52.1-313.6-34.8c-38.4-86.2,91-253.9,190.3-242.3c98.2,11.5,183.2,205.2,123.2,278.8
		c-63.2,77.6-280.2,50.9-318.8-38.9C68.7,285.5,202,118.8,304.8,132c101.2,12.9,183.8,208.6,120.8,283.2
		c-66.9,79.1-285.3,49.7-323.8-43c-38-91.6,98.9-257.6,205.2-242.8c104.1,14.5,184.6,212.1,118.6,287.8
		c-70.5,80.8-290.2,48.7-328.6-47c-37.9-94.5,102.3-259.9,212.1-243.5c107.1,16,185.6,215.7,116.5,292.7
		c-73.9,82.4-294.9,47.8-333.2-51.1C54.5,270.6,197.8,105.6,311,123.7c110.2,17.7,186.9,219.4,114.8,298
		c-77.2,84.2-299.3,47.2-337.7-55C50.2,265.6,196.2,100.6,312.7,120.5c113.4,19.3,188.5,223.4,113.4,303.8
		c-80.3,86.1-303.5,46.8-342-59C46,260.7,194.5,95.5,314.2,117.1c116.6,21.1,190.5,227.6,112.4,310.1c-83.2,88-307.4,46.5-346.2-63
		C42.1,255.7,192.8,90.1,315.6,113.5c120,22.9,192.8,232,111.8,316.9c-85.9,90.1-311.1,46.5-350.3-67
		C38.3,250.8,191,84.5,316.8,109.7c123.5,24.8,195.4,236.7,111.4,324.1c-88.5,92.2-314.7,46.5-354.3-71.1
		c-39.3-116.9,115.2-284,243.9-256.9c127.1,26.7,198.2,241.4,111.3,331.6C338.3,531.8,111,484.1,71,362.2
		c-39.9-121.4,116.4-289.3,248-260.3c130.7,28.8,201.2,246.3,111.4,339.4c-93.2,96.6-321.6,46.8-362.2-79.6
		C27.7,235.7,185.6,67,320,97.9c134.5,30.9,204.3,251.3,111.5,347.3c-95.6,98.8-325,46.9-366.1-84C24.4,230.5,184,61.1,321.3,94.1
		c138.2,33.2,207.4,256.4,111.5,355.3c-98,101.1-328.4,47-370-88.6C21.3,225.4,182.5,55.3,322.6,90.4
		c142,35.5,210.4,261.4,111.4,363.2c-100.4,103.3-331.8,47-373.8-93.3c-42-140.2,120.9-310.7,264-273.5
		C470,124.8,537.6,353.2,435.3,457.9c-103,105.5-335.3,47-377.7-98.1C15.3,214.8,180,44.1,326,83.6
		C475.6,124,542.2,354.9,436.6,462.3c-105.7,107.6-338.9,46.8-381.5-103c-42.6-149.9,124-320.6,273-278.8
		c153.3,43,218.7,276.2,109.7,386.2C329.1,576.4,95.2,513.3,52.5,358.6C9.8,204,178.3,33.4,330.4,77.7
		c157.1,45.7,221.2,281,108.6,393.5C327.2,582.8,92.6,517.3,49.9,357.9C7.2,198.5,177.8,28.2,333,75.1
		c160.8,48.5,223.4,285.8,107.1,400.6C325,589.2,89.8,521.3,47.3,357.1C4.8,192.9,177.4,23.2,335.8,72.8
		c164.6,51.4,225.5,290.4,105.3,407.4C322.6,595.6,86.9,525.2,44.7,356.2C2.6,187.4,177.2,18.4,338.9,70.6
		c168.2,54.4,227.3,295,103.3,414.1C320,602,84,529.2,42.3,355.4C0.5,181.8,177.3,13.7,342.1,68.7c171.8,57.4,229,299.4,100.9,420.5
		C317.2,608.3,81.1,533.1,39.9,354.7C-1.3,176.3,177.5,9.1,345.5,66.9c175.3,60.3,230.4,303.6,98.3,426.8
		C314.3,614.5,78.3,537.1,37.7,354C-2.8,170.8,177.8,4.6,349,65.2c178.6,63.3,231.7,307.6,95.5,432.9
		c-133.2,122.6-369,43.1-408.7-144.7C-4.1,165.2,178.3,0.1,352.4,63.4c181.9,66.2,232.8,311.4,92.4,438.9
		C308,626.6,72.7,545.3,33.8,352.9C-5.3,159.6,178.8-4.5,355.8,61.6c185,69.1,233.8,315.1,89.4,444.9
		c-140.4,126.1-375,43-413.1-154.1C-6.2,153.9,179.2-9.3,358.9,59.5c188,72,234.9,318.8,86.3,451.1
		C301.4,638.5,67.5,553.8,30.4,351.9C-7.1,148,179.6-14.3,361.8,57.2c191,74.9,236.1,322.5,83.3,457.4
		c-147,129.8-380.2,43.5-416.5-163.3C-8.1,141.9,179.8-19.5,364.5,54.7c194.1,78,237.4,326.3,80.4,463.9
		c-150.3,131.7-382.7,43.8-418.1-168C-9.1,135.5,179.8-25,367,52c197.2,81.1,238.9,330.2,77.6,470.5
		C291.1,656,59.4,566.6,24.9,349.6C-10.2,128.7,179.8-30.8,369.4,49.1c200.4,84.5,240.4,334.4,74.9,477.3
		c-156.8,135.3-388,44.2-421.5-178.1c-34.2-226.6,156.9-385.1,349-302c203.7,88.1,242.1,338.8,72.1,484.1
		c-160.4,137.1-391,44-423.6-183.7C-13,114.3,179.4-42.9,374.2,43.5C581.4,135.5,618,387,443.4,534.4
		C279.1,673,48.9,577.9,17.4,344.6C-14.6,106.7,179.2-49.1,376.8,41c210.8,96.1,245.5,348.4,66.1,497.5
		C274.4,678.5,44.5,581,14.4,342.1C-16.3,98.9,179.2-55.1,379.9,38.9C594.5,139.4,627,392.5,442.5,542.7
		C269.2,683.9,39.5,583.8,11,339.3C-18,91.1,179.4-61,383.5,37.3C601.9,142.5,632,396.1,442.1,547C263.3,689,34,586.1,7.4,336.2
		C-19.6,83.1,179.9-66.6,387.7,36.3c222.2,110,249.5,364.2,54,515C256.8,693.9,27.9,587.9,3.5,332.7"/>
</g>
</svg>
